<svg version="1.1" xmlns="http://www.w3.org/2000/svg" viewBox="0 0 968.02723191445 297.8950184870099" width="968.02723191445" height="297.8950184870099">
  <!-- svg-source:excalidraw -->
  
  <defs>
    <style class="style-fonts">
      @font-face {
        font-family: "Virgil";
        src: url("https://excalidraw.com/Virgil.woff2");
      }
      @font-face {
        font-family: "Cascadia";
        src: url("https://excalidraw.com/Cascadia.woff2");
      }
      @font-face {
        font-family: "Assistant";
        src: url("https://excalidraw.com/Assistant-Regular.woff2");
      }
    </style>
    
  </defs>
  <rect x="0" y="0" width="968.02723191445" height="297.8950184870099" fill="#ffffff"></rect><g transform="translate(10 10) rotate(0 96.30000305175781 17.5)"><text x="96.30000305175781" y="24.528" font-family="Virgil, Segoe UI Emoji" font-size="28px" fill="#1e1e1e" text-anchor="middle" style="white-space: pre;" direction="ltr" dominant-baseline="alphabetic">Actor externo</text></g><g transform="translate(87.93708008949977 63.521770397710355) rotate(0 -0.5152619238073157 21.984508749112216)" stroke="none"><path d="M-0.84 1.19 C-2.22 0.83, -8.33 -2.59, -10.26 -2.93 C-12.2 -3.26, -10.54 -1.95, -12.44 -0.83 C-14.33 0.29, -19.6 1.06, -21.63 3.8 C-23.66 6.54, -23.63 12.13, -24.62 15.61 C-25.61 19.09, -26.9 22.65, -27.54 24.69 C-28.19 26.74, -29.72 25.77, -28.5 27.89 C-27.28 30.01, -23.2 34.58, -20.24 37.4 C-17.27 40.23, -15.43 43.61, -10.71 44.83 C-5.99 46.05, 4.2 44.64, 8.08 44.72 C11.96 44.81, 10.6 46.54, 12.57 45.34 C14.55 44.14, 17.88 41.02, 19.94 37.5 C22 33.98, 24.33 28.33, 24.94 24.22 C25.55 20.11, 23.52 15.53, 23.59 12.85 C23.66 10.16, 27.03 10.79, 25.35 8.11 C23.68 5.44, 17.22 -1.19, 13.53 -3.21 C9.83 -5.22, 4.27 -4.51, 3.17 -4" stroke="none" stroke-width="0" fill="#15aabf" fill-rule="evenodd"></path><path fill="#1e1e1e" d="M -0.40,4.64 Q -0.40,4.64 -2.67,4.53 -4.95,4.42 -9.23,5.78 -13.52,7.14 -15.54,9.59 -17.57,12.04 -18.58,14.11 -19.59,16.17 -20.41,19.14 -21.24,22.10 -20.67,25.08 -20.09,28.06 -18.04,30.84 -16.00,33.62 -14.00,34.75 -12.01,35.87 -9.15,36.69 -6.29,37.51 -2.57,38.17 1.13,38.83 3.42,39.23 5.70,39.63 9.08,38.10 12.47,36.56 14.96,32.36 17.44,28.15 18.51,23.87 19.57,19.59 19.45,16.59 19.33,13.59 17.97,11.84 16.61,10.09 14.47,7.83 12.34,5.58 9.93,4.34 7.52,3.10 5.98,3.15 4.44,3.20 3.67,3.02 2.89,2.83 2.21,2.41 1.54,1.98 1.03,1.36 0.53,0.74 0.24,0.00 -0.03,-0.74 -0.06,-1.54 -0.08,-2.34 0.13,-3.10 0.36,-3.87 0.82,-4.52 1.28,-5.17 1.93,-5.65 2.57,-6.12 3.33,-6.36 4.10,-6.60 4.90,-6.58 5.69,-6.57 6.45,-6.30 7.20,-6.03 7.83,-5.54 8.45,-5.04 8.89,-4.37 9.32,-3.70 9.52,-2.93 9.72,-2.15 9.66,-1.36 9.61,-0.56 9.30,0.17 8.99,0.90 8.46,1.50 7.93,2.10 7.24,2.50 6.55,2.90 5.76,3.06 4.98,3.21 4.19,3.11 3.39,3.01 2.67,2.66 1.96,2.31 1.39,1.75 0.82,1.19 0.46,0.48 0.10,-0.22 -0.01,-1.02 -0.12,-1.81 0.01,-2.59 0.16,-3.38 0.54,-4.08 0.93,-4.77 1.52,-5.31 2.11,-5.85 2.84,-6.17 3.57,-6.49 4.37,-6.57 5.16,-6.64 5.16,-6.64 5.16,-6.64 7.40,-6.26 9.64,-5.89 12.05,-4.45 14.46,-3.00 16.33,-1.49 18.20,0.01 20.93,2.94 23.66,5.87 25.39,9.35 27.12,12.83 27.28,17.01 27.45,21.20 26.40,26.85 25.35,32.50 21.94,38.66 18.52,44.82 14.42,47.44 10.32,50.07 5.03,49.88 -0.25,49.70 -2.64,49.32 -5.03,48.93 -8.93,47.61 -12.84,46.28 -15.06,45.27 -17.28,44.25 -21.78,40.24 -26.29,36.22 -27.69,33.65 -29.09,31.08 -29.68,28.37 -30.27,25.67 -29.91,22.76 -29.54,19.86 -28.48,15.89 -27.41,11.92 -25.83,9.30 -24.25,6.67 -21.11,2.74 -17.97,-1.19 -14.06,-3.02 -10.15,-4.86 -7.14,-5.04 -4.13,-5.21 -1.86,-4.93 0.40,-4.64 0.95,-4.53 1.50,-4.41 2.01,-4.17 2.51,-3.92 2.95,-3.56 3.38,-3.21 3.72,-2.75 4.05,-2.30 4.27,-1.78 4.49,-1.27 4.57,-0.71 4.66,-0.15 4.61,0.40 4.56,0.96 4.38,1.49 4.20,2.02 3.89,2.50 3.59,2.97 3.18,3.36 2.77,3.74 2.29,4.02 1.80,4.30 1.26,4.45 0.71,4.61 0.15,4.62 -0.40,4.64 -0.40,4.64 L -0.40,4.64 Z"></path></g><g transform="translate(82.44095290222174 109.89534354036894) rotate(0 0.34350794920487715 37.78587441253663)" stroke="none"><path fill="#1e1e1e" d="M 4.64,-0.92 Q 4.64,-0.92 5.22,3.06 5.80,7.05 6.25,9.76 6.70,12.46 6.64,15.46 6.58,18.45 6.54,21.24 6.51,24.03 6.56,26.31 6.62,28.59 6.57,31.73 6.52,34.87 5.99,38.18 5.46,41.48 4.85,46.37 4.24,51.25 3.87,55.80 3.50,60.34 3.50,63.51 3.50,66.68 4.22,71.06 4.94,75.44 4.80,76.39 4.67,77.35 4.23,78.21 3.80,79.08 3.11,79.76 2.42,80.44 1.56,80.86 0.69,81.29 -0.26,81.41 -1.22,81.54 -2.17,81.35 -3.11,81.16 -3.95,80.68 -4.79,80.20 -5.43,79.48 -6.08,78.76 -6.45,77.87 -6.83,76.98 -6.90,76.01 -6.98,75.05 -6.74,74.11 -6.50,73.18 -5.98,72.37 -5.45,71.55 -4.70,70.95 -3.94,70.35 -3.03,70.02 -2.12,69.69 -1.15,69.67 -0.19,69.65 0.72,69.94 1.65,70.23 2.43,70.80 3.21,71.36 3.77,72.15 4.33,72.94 4.61,73.87 4.89,74.79 4.86,75.76 4.83,76.72 4.49,77.63 4.15,78.53 3.54,79.28 2.93,80.03 2.11,80.55 1.30,81.07 0.36,81.30 -0.57,81.52 -1.54,81.44 -2.50,81.36 -3.38,80.97 -4.27,80.58 -4.99,79.93 -5.70,79.28 -6.17,78.44 -6.64,77.60 -6.82,76.65 -7.00,75.70 -7.00,75.70 -7.00,75.70 -6.94,73.99 -6.88,72.29 -7.17,69.29 -7.47,66.30 -7.12,62.70 -6.78,59.09 -6.46,56.82 -6.14,54.55 -5.85,52.06 -5.55,49.58 -5.09,46.90 -4.64,44.22 -4.31,42.05 -3.98,39.87 -3.52,37.34 -3.05,34.81 -3.08,31.64 -3.10,28.47 -2.99,26.14 -2.88,23.81 -2.78,20.86 -2.69,17.90 -2.44,15.75 -2.20,13.60 -2.42,11.17 -2.64,8.74 -3.64,4.83 -4.64,0.92 -4.68,0.35 -4.72,-0.20 -4.63,-0.77 -4.54,-1.33 -4.31,-1.85 -4.09,-2.38 -3.74,-2.83 -3.40,-3.29 -2.95,-3.65 -2.51,-4.01 -1.99,-4.25 -1.48,-4.49 -0.92,-4.60 -0.36,-4.72 0.20,-4.69 0.77,-4.67 1.32,-4.50 1.87,-4.34 2.36,-4.06 2.85,-3.77 3.26,-3.37 3.67,-2.97 3.98,-2.49 4.28,-2.01 4.46,-1.47 4.64,-0.92 4.64,-0.92 L 4.64,-0.92 Z"></path></g><g transform="translate(51.181729524577804 142.5285987148324) rotate(0 32.63325517446344 -1.5457857714219614)" stroke="none"><path fill="#1e1e1e" d="M -0.18,-4.84 Q -0.18,-4.84 2.37,-4.98 4.94,-5.13 7.77,-5.19 10.59,-5.24 13.20,-5.46 15.80,-5.68 18.46,-5.82 21.11,-5.95 23.86,-6.17 26.61,-6.38 29.67,-6.63 32.73,-6.88 35.03,-7.25 37.34,-7.61 40.35,-7.77 43.36,-7.93 46.00,-8.02 48.63,-8.11 52.29,-8.30 55.94,-8.49 58.34,-8.67 60.74,-8.85 63.46,-7.59 66.18,-6.33 65.79,-7.16 65.41,-7.98 66.35,-7.80 67.30,-7.62 68.13,-7.15 68.97,-6.68 69.61,-5.97 70.25,-5.26 70.63,-4.38 71.01,-3.50 71.09,-2.54 71.17,-1.59 70.94,-0.65 70.71,0.27 70.20,1.08 69.68,1.89 68.93,2.49 68.19,3.09 67.29,3.42 66.39,3.75 65.43,3.78 64.47,3.81 63.55,3.53 62.64,3.25 61.86,2.69 61.08,2.13 60.52,1.35 59.95,0.58 59.67,-0.33 59.39,-1.25 59.41,-2.20 59.44,-3.16 59.77,-4.06 60.10,-4.97 60.70,-5.71 61.30,-6.46 62.10,-6.98 62.91,-7.50 63.84,-7.73 64.77,-7.96 65.73,-7.89 66.68,-7.81 67.56,-7.43 68.45,-7.06 69.16,-6.42 69.88,-5.78 70.35,-4.94 70.82,-4.11 71.01,-3.17 71.19,-2.23 71.06,-1.28 70.93,-0.32 70.51,0.53 70.08,1.39 69.40,2.06 68.73,2.74 67.87,3.17 67.01,3.60 66.06,3.73 65.11,3.86 65.11,3.86 65.11,3.86 62.94,3.26 60.76,2.67 58.39,2.50 56.01,2.33 52.44,2.22 48.87,2.10 46.36,2.12 43.85,2.15 41.27,2.27 38.68,2.39 36.18,2.67 33.68,2.95 30.56,3.30 27.44,3.65 24.46,3.90 21.48,4.16 19.03,4.21 16.57,4.26 13.66,4.47 10.75,4.68 8.03,4.71 5.32,4.73 2.75,4.79 0.18,4.84 -0.39,4.79 -0.97,4.74 -1.53,4.56 -2.08,4.37 -2.58,4.06 -3.07,3.74 -3.47,3.32 -3.88,2.90 -4.17,2.39 -4.46,1.89 -4.62,1.33 -4.78,0.76 -4.80,0.18 -4.83,-0.39 -4.71,-0.97 -4.59,-1.54 -4.34,-2.07 -4.09,-2.59 -3.72,-3.05 -3.35,-3.50 -2.88,-3.85 -2.41,-4.20 -1.87,-4.43 -1.33,-4.65 -0.76,-4.75 -0.18,-4.84 -0.18,-4.84 L -0.18,-4.84 Z"></path></g><g transform="translate(83.12796880063149 185.8106003146471) rotate(0 12.366286171375634 15.80136566342442)" stroke="none"><path fill="#1e1e1e" d="M 1.97,-4.69 Q 1.97,-4.69 5.00,-3.32 8.03,-1.95 10.56,-0.42 13.10,1.10 15.41,4.07 17.73,7.03 18.94,9.39 20.15,11.75 21.64,14.05 23.13,16.35 23.91,18.40 24.68,20.44 27.28,23.67 29.88,26.91 30.44,29.24 30.99,31.58 30.94,32.60 30.89,33.61 30.51,34.56 30.14,35.51 29.48,36.29 28.83,37.07 27.96,37.60 27.08,38.13 26.09,38.35 25.09,38.58 24.08,38.47 23.07,38.36 22.14,37.94 21.21,37.52 20.47,36.82 19.73,36.12 19.24,35.22 18.76,34.32 18.59,33.32 18.43,32.31 18.59,31.30 18.75,30.30 19.22,29.39 19.69,28.49 20.43,27.79 21.17,27.08 22.09,26.65 23.02,26.22 24.03,26.10 25.04,25.99 26.04,26.21 27.04,26.42 27.91,26.94 28.79,27.46 29.45,28.24 30.11,29.01 30.50,29.96 30.88,30.91 30.94,31.92 31.00,32.94 30.73,33.92 30.46,34.91 29.89,35.75 29.32,36.60 28.51,37.22 27.70,37.84 26.74,38.17 25.77,38.50 24.75,38.50 23.73,38.51 22.76,38.19 21.80,37.86 20.98,37.25 20.17,36.64 19.59,35.80 19.02,34.95 18.74,33.97 18.46,32.99 18.46,32.99 18.46,32.99 18.77,30.83 19.08,28.67 16.58,26.28 14.08,23.89 13.20,21.63 12.32,19.37 10.95,16.10 9.59,12.82 6.90,9.95 4.21,7.09 1.12,5.89 -1.97,4.69 -2.50,4.39 -3.03,4.08 -3.48,3.66 -3.92,3.24 -4.25,2.72 -4.58,2.20 -4.78,1.62 -4.98,1.04 -5.03,0.43 -5.09,-0.17 -4.99,-0.78 -4.90,-1.38 -4.66,-1.95 -4.42,-2.52 -4.05,-3.01 -3.69,-3.50 -3.22,-3.89 -2.74,-4.29 -2.19,-4.55 -1.64,-4.82 -1.03,-4.94 -0.43,-5.07 0.17,-5.05 0.78,-5.03 1.37,-4.86 1.97,-4.69 1.97,-4.69 L 1.97,-4.69 Z"></path></g><g transform="translate(78.04361094112096 183.68563248052342) rotate(0 -9.807275907839937 19.984637698994646)" stroke="none"><path fill="#1e1e1e" d="M 4.07,3.39 Q 4.07,3.39 3.06,4.71 2.06,6.04 0.05,7.98 -1.94,9.91 -3.70,11.44 -5.45,12.96 -7.68,15.35 -9.92,17.73 -11.21,19.64 -12.50,21.55 -12.68,23.96 -12.86,26.37 -12.85,28.70 -12.84,31.03 -12.03,35.12 -11.22,39.21 -11.28,40.33 -11.34,41.45 -11.76,42.50 -12.17,43.54 -12.90,44.40 -13.63,45.26 -14.59,45.84 -15.55,46.42 -16.65,46.66 -17.75,46.90 -18.87,46.78 -19.98,46.66 -21.00,46.19 -22.03,45.72 -22.84,44.95 -23.66,44.17 -24.19,43.18 -24.71,42.19 -24.90,41.08 -25.08,39.97 -24.90,38.86 -24.72,37.75 -24.19,36.76 -23.66,35.76 -22.85,34.99 -22.03,34.21 -21.01,33.74 -19.99,33.27 -18.87,33.15 -17.76,33.02 -16.66,33.27 -15.56,33.51 -14.60,34.09 -13.63,34.66 -12.90,35.52 -12.18,36.38 -11.76,37.42 -11.34,38.47 -11.28,39.59 -11.22,40.71 -11.52,41.80 -11.82,42.88 -12.45,43.81 -13.08,44.74 -13.98,45.42 -14.87,46.10 -15.94,46.46 -17.00,46.82 -18.13,46.82 -19.25,46.82 -20.32,46.46 -21.38,46.11 -22.28,45.43 -23.17,44.75 -23.80,43.82 -24.44,42.89 -24.74,41.80 -25.04,40.72 -25.04,40.72 -25.04,40.72 -25.19,40.10 -25.35,39.48 -25.89,36.44 -26.43,33.39 -26.34,31.14 -26.25,28.89 -26.02,26.23 -25.79,23.56 -25.35,21.39 -24.92,19.23 -23.56,16.01 -22.19,12.80 -20.41,10.75 -18.62,8.70 -16.67,6.75 -14.71,4.80 -12.49,3.18 -10.28,1.56 -8.30,0.31 -6.31,-0.93 -5.19,-2.16 -4.07,-3.39 -3.60,-3.83 -3.14,-4.27 -2.58,-4.58 -2.02,-4.89 -1.41,-5.06 -0.79,-5.24 -0.15,-5.26 0.47,-5.27 1.10,-5.14 1.72,-5.01 2.30,-4.73 2.87,-4.45 3.36,-4.04 3.86,-3.63 4.23,-3.11 4.61,-2.60 4.86,-2.01 5.10,-1.42 5.20,-0.79 5.29,-0.15 5.24,0.47 5.18,1.11 4.97,1.71 4.76,2.32 4.41,2.85 4.07,3.39 4.07,3.39 L 4.07,3.39 Z"></path></g><g stroke-linecap="round" transform="translate(249.03388084062033 84.29787281224189) rotate(0 89.29752362756756 59.531682418378416)"><path d="M0 0 C40.31 0.59, 81.25 0.26, 178.6 0 M0 0 C68.62 -0.81, 136.82 -1.22, 178.6 0 M178.6 0 C177.2 33.8, 178.98 64.46, 178.6 119.06 M178.6 0 C176.69 25.82, 176.52 53.13, 178.6 119.06 M178.6 119.06 C129.43 120.78, 84.41 119.73, 0 119.06 M178.6 119.06 C108.15 117.61, 37.37 117.89, 0 119.06 M0 119.06 C-0.03 83.91, -0.71 48.13, 0 0 M0 119.06 C0.78 90.11, 1.2 58.56, 0 0" stroke="#1e1e1e" stroke-width="2" fill="none"></path></g><g transform="translate(274.7145807524481 109.63050362857305) rotate(0 69.31666564941406 35)"><text x="69.31666564941406" y="24.528" font-family="Virgil, Segoe UI Emoji" font-size="28px" fill="#1e1e1e" text-anchor="middle" style="white-space: pre;" direction="ltr" dominant-baseline="alphabetic">Boundary </text><text x="69.31666564941406" y="59.528" font-family="Virgil, Segoe UI Emoji" font-size="28px" fill="#1e1e1e" text-anchor="middle" style="white-space: pre;" direction="ltr" dominant-baseline="alphabetic">(Limite)</text></g><g stroke-linecap="round" transform="translate(520.9000198220916 107.42605461073146) rotate(0 86.13094477552625 39.47668302211622)"><path d="M0 0 C45.73 0.48, 92.87 2.02, 172.26 0 M0 0 C58.85 1.78, 117.43 1.48, 172.26 0 M172.26 0 C171.18 24.34, 172.72 49.57, 172.26 78.95 M172.26 0 C171.98 29.31, 172.07 61.04, 172.26 78.95 M172.26 78.95 C107.5 78.93, 42.76 80.9, 0 78.95 M172.26 78.95 C133.78 79.62, 94.8 80.7, 0 78.95 M0 78.95 C0.36 55.85, 1.46 31.12, 0 0 M0 78.95 C-0.98 48.16, -0.11 17.5, 0 0" stroke="#1e1e1e" stroke-width="2" fill="none"></path></g><g transform="translate(554.5023048998329 126.75790621241396) rotate(0 56.625 20.354609929078023)"><text x="56.625" y="28.52902127659575" font-family="Virgil, Segoe UI Emoji" font-size="32.56737588652483px" fill="#1e1e1e" text-anchor="middle" style="white-space: pre;" direction="ltr" dominant-baseline="alphabetic">Control</text></g><g stroke-linecap="round" transform="translate(785.7653423633977 114.25435989994389) rotate(0 86.13094477552613 39.47668302211622)"><path d="M0 0 C34.31 -0.27, 70.8 -0.68, 172.26 0 M0 0 C49.39 0.71, 99.35 2.34, 172.26 0 M172.26 0 C172.16 27.83, 172.93 58.18, 172.26 78.95 M172.26 0 C171.03 29.62, 171.66 60.07, 172.26 78.95 M172.26 78.95 C129.51 78.1, 89.26 76.29, 0 78.95 M172.26 78.95 C130.6 79.71, 89.61 81.22, 0 78.95 M0 78.95 C-0.42 60.17, -0.96 43.8, 0 0 M0 78.95 C-0.26 54.49, -0.43 30.67, 0 0" stroke="#1e1e1e" stroke-width="2" fill="none"></path></g><g transform="translate(815.2509625546642 133.58621150162637) rotate(0 60.74166488647461 20.35460992907801)"><text x="60.74166488647461" y="28.52902127659575" font-family="Virgil, Segoe UI Emoji" font-size="32.56737588652483px" fill="#1e1e1e" text-anchor="middle" style="white-space: pre;" direction="ltr" dominant-baseline="alphabetic">Entidad</text></g><g stroke-linecap="round"><g transform="translate(697.690003859106 145.76212717461354) rotate(0 39.88422970500915 0)"><path d="M0 0 C20.08 -1.76, 39.94 0.26, 79.77 0 M0 0 C26.3 -0.54, 51.6 -0.93, 79.77 0" stroke="#1e1e1e" stroke-width="2" fill="none"></path></g><g transform="translate(697.690003859106 145.76212717461354) rotate(0 39.88422970500915 0)"><path d="M79.71 -0.59 L65.33 7.92 L64.52 -7.19 L78.55 1.05" stroke="none" stroke-width="0" fill="#1e1e1e" fill-rule="evenodd"></path><path d="M79.77 0 C75.54 0.88, 71.12 3.98, 66.04 6.06 M79.77 0 C75.8 1.82, 71.03 3.48, 66.04 6.06 M66.04 6.06 C65.18 1.57, 66.47 -1.04, 66.31 -6.62 M66.04 6.06 C66.39 2.86, 66.15 -1.2, 66.31 -6.62 M66.31 -6.62 C70.25 -3.64, 74.09 -3.42, 79.77 0 M66.31 -6.62 C69.57 -4.56, 71.7 -4.22, 79.77 0 M79.77 0 C79.77 0, 79.77 0, 79.77 0 M79.77 0 C79.77 0, 79.77 0, 79.77 0" stroke="#1e1e1e" stroke-width="2" fill="none"></path></g></g><mask></mask><g stroke-linecap="round"><g transform="translate(440.98059812141025 137.06011342079339) rotate(0 34.80805501528084 0.7251678128183414)"><path d="M0 0 C18.15 -1, 36.94 0.14, 69.62 1.45 M0 0 C22.12 1.47, 43.75 1.84, 69.62 1.45" stroke="#1e1e1e" stroke-width="2" fill="none"></path></g><g transform="translate(440.98059812141025 137.06011342079339) rotate(0 34.80805501528084 0.7251678128183414)"><path d="M69.73 2.8 L54.11 7.9 L55.22 -6.07 L69.68 0.76" stroke="none" stroke-width="0" fill="#1e1e1e" fill-rule="evenodd"></path><path d="M69.62 1.45 C65.35 2.49, 61.6 4.79, 56.06 7.87 M69.62 1.45 C65.83 3.96, 61.7 5.89, 56.06 7.87 M56.06 7.87 C55.65 3.41, 56.86 -0.68, 55.98 -4.8 M56.06 7.87 C56.1 4.91, 55.64 2.56, 55.98 -4.8 M55.98 -4.8 C59.95 -4.39, 64.92 -0.43, 69.62 1.45 M55.98 -4.8 C59.87 -2.38, 63.69 -1.8, 69.62 1.45 M69.62 1.45 C69.62 1.45, 69.62 1.45, 69.62 1.45 M69.62 1.45 C69.62 1.45, 69.62 1.45, 69.62 1.45" stroke="#1e1e1e" stroke-width="2" fill="none"></path></g></g><mask></mask><g stroke-linecap="round"><g transform="translate(126.25776735824707 112.4044077849695) rotate(0 54.387585961376146 1.4503356256367113)"><path d="M0 0 C20.77 1.07, 43.38 -0.2, 108.78 2.9 M0 0 C26.97 1.96, 52.15 1.55, 108.78 2.9" stroke="#1e1e1e" stroke-width="2" fill="none"></path></g><g transform="translate(126.25776735824707 112.4044077849695) rotate(0 54.387585961376146 1.4503356256367113)"><path d="M110.31 1.96 L96.66 9.69 L93.92 -3.21 L108.91 2.47" stroke="none" stroke-width="0" fill="#1e1e1e" fill-rule="evenodd"></path><path d="M108.78 2.9 C105.05 4.12, 102.7 3.96, 95.06 8.97 M108.78 2.9 C106.05 4.6, 102 5.23, 95.06 8.97 M95.06 8.97 C95.4 5.06, 96.37 2.28, 95.31 -3.7 M95.06 8.97 C95.54 5.41, 95.15 1.09, 95.31 -3.7 M95.31 -3.7 C98.76 -0.06, 104.74 0.89, 108.78 2.9 M95.31 -3.7 C98.31 -1.67, 102.11 -0.66, 108.78 2.9 M108.78 2.9 C108.78 2.9, 108.78 2.9, 108.78 2.9 M108.78 2.9 C108.78 2.9, 108.78 2.9, 108.78 2.9" stroke="#1e1e1e" stroke-width="2" fill="none"></path></g></g><mask></mask><g stroke-linecap="round"><g transform="translate(132.0591098607939 192.17286719498784) rotate(0 198.69598071222754 47.86107564601102)"><path d="M0 0 C28.75 30.26, 59.88 61.78, 85.57 89.92 M85.57 89.92 C115.11 90.16, 148.88 93.68, 224.8 95.72 M224.8 95.72 C257.1 90.78, 293.62 89.79, 324.88 84.12 M324.88 84.12 C346.34 62.53, 366.76 39.38, 397.39 8.7" stroke="#1e1e1e" stroke-width="2.5" fill="none" stroke-dasharray="8 10"></path></g><g transform="translate(132.0591098607939 192.17286719498784) rotate(0 198.69598071222754 47.86107564601102)"><path d="M397.64 8.86 L393.46 23.27 L383.77 13.53 L396.8 7.2" stroke="none" stroke-width="0" fill="#1e1e1e" fill-rule="evenodd"></path><path d="M397.39 8.7 C394.72 12.42, 393.97 17.49, 392.43 22.86 M392.43 22.86 C389.6 19.94, 389.35 19.38, 383.36 14 M383.36 14 C387.06 11.01, 393.94 11.41, 397.39 8.7 M397.39 8.7 C397.39 8.7, 397.39 8.7, 397.39 8.7" stroke="#1e1e1e" stroke-width="2.5" fill="none"></path></g></g><mask></mask><g stroke-linecap="round"><g transform="translate(162.6049977351439 223.90307065000107) rotate(0 -16.272481613481602 -16.632435162149235)"><path d="M0 0 C-10.73 -11.49, -21.38 -22.98, -32.54 -33.26" stroke="#1e1e1e" stroke-width="2.5" fill="none" stroke-dasharray="8 10"></path></g><g transform="translate(162.6049977351439 223.90307065000107) rotate(0 -16.272481613481602 -16.632435162149235)"><path d="M-33.47 -33.6 L-18.47 -29.26 L-27.71 -19.2 L-33.08 -33.8" stroke="none" stroke-width="0" fill="#1e1e1e" fill-rule="evenodd"></path><path d="M-32.54 -33.26 C-27.73 -31.78, -22.81 -30.43, -18.35 -28.41 M-18.35 -28.41 C-21.44 -24.32, -24.91 -20.7, -27.15 -19.27 M-27.15 -19.27 C-29.16 -23.63, -29.45 -26.04, -32.54 -33.26 M-32.54 -33.26 C-32.54 -33.26, -32.54 -33.26, -32.54 -33.26" stroke="#1e1e1e" stroke-width="2.5" fill="none"></path></g></g><mask></mask></svg>