<svg version="1.1" xmlns="http://www.w3.org/2000/svg" viewBox="0 0 1183.6652253818504 494.23270002309937" width="2367.330450763701" height="988.4654000461987">
  <!-- svg-source:excalidraw -->
  
  <defs>
    <style class="style-fonts">
      @font-face {
        font-family: "Virgil";
        src: url("https://excalidraw.com/Virgil.woff2");
      }
      @font-face {
        font-family: "Cascadia";
        src: url("https://excalidraw.com/Cascadia.woff2");
      }
      @font-face {
        font-family: "Assistant";
        src: url("https://excalidraw.com/Assistant-Regular.woff2");
      }
    </style>
    
  </defs>
  <rect x="0" y="0" width="1183.6652253818504" height="494.23270002309937" fill="#ffffff"></rect><g stroke-linecap="round"><g transform="translate(10 52.28394496249379) rotate(0 581.8326126909252 0)"><path d="M0 0 C239.52 3.71, 480.15 2.49, 1163.67 0 M0 0 C292.56 3.03, 584.98 3.65, 1163.67 0" stroke="#1e1e1e" stroke-width="2" fill="none"></path></g></g><mask></mask><g transform="translate(16.88144337684082 10.977370025004177) rotate(0 50.94776153564453 17.5)"><text x="50.94776153564453" y="24.528" font-family="Virgil, Segoe UI Emoji" font-size="28px" fill="#1e1e1e" text-anchor="middle" style="white-space: pre;" direction="ltr" dominant-baseline="alphabetic">Agosto 3</text></g><g transform="translate(157.32379816430557 10) rotate(0 50.94776153564453 17.5)"><text x="50.94776153564453" y="24.528" font-family="Virgil, Segoe UI Emoji" font-size="28px" fill="#1e1e1e" text-anchor="middle" style="white-space: pre;" direction="ltr" dominant-baseline="alphabetic">Agosto 7</text></g><g transform="translate(296.66709222855434 12.360375710713726) rotate(0 57.94776153564453 17.5)"><text x="57.94776153564453" y="24.528" font-family="Virgil, Segoe UI Emoji" font-size="28px" fill="#1e1e1e" text-anchor="middle" style="white-space: pre;" direction="ltr" dominant-baseline="alphabetic">Agosto 17</text></g><g stroke-linecap="round" transform="translate(17.08112713214109 65.2660113714191) rotate(0 122.73953695711202 16.522629974995837)"><path d="M-1.37 1.68 L246.62 0.35 L245.23 31.16 L-1.53 34.76" stroke="none" stroke-width="0" fill="#ffc9c9"></path><path d="M0 0 C89.67 0.07, 182.9 -0.24, 245.48 0 M0 0 C67.78 -0.98, 136.53 -1.06, 245.48 0 M245.48 0 C244.27 11.83, 244.48 19.51, 245.48 33.05 M245.48 0 C245.97 13.06, 245.04 25.56, 245.48 33.05 M245.48 33.05 C174.61 31.99, 100.57 32.75, 0 33.05 M245.48 33.05 C181.77 33.35, 119.22 33.69, 0 33.05 M0 33.05 C-2.02 21.88, 1.27 9.5, 0 0 M0 33.05 C0.16 23.86, 0.37 15.67, 0 0" stroke="#1e1e1e" stroke-width="2" fill="none"></path></g><g stroke-linecap="round" transform="translate(295.60546099635667 110.11314987497923) rotate(0 65.50042597230504 12.98206640892532)"><path d="M0.27 -1.86 L129.85 -1.45 L132.29 25.4 L0.65 25.48" stroke="none" stroke-width="0" fill="#b2f2bb"></path><path d="M0 0 C46.09 2.04, 89.18 0.65, 131 0 M0 0 C27.05 -0.33, 53.37 -0.81, 131 0 M131 0 C131.01 4.96, 129.27 11.93, 131 25.96 M131 0 C132.02 6.46, 131.79 13.44, 131 25.96 M131 25.96 C105.2 23.92, 77.8 24.25, 0 25.96 M131 25.96 C104 26.69, 75.91 25.93, 0 25.96 M0 25.96 C1.25 19.11, -1.93 10.93, 0 0 M0 25.96 C0.56 19.41, 0.72 13.17, 0 0" stroke="#1e1e1e" stroke-width="2" fill="none"></path></g><g transform="translate(457.1726405570855 10) rotate(0 57.94776153564453 17.5)"><text x="57.94776153564453" y="24.528" font-family="Virgil, Segoe UI Emoji" font-size="28px" fill="#1e1e1e" text-anchor="middle" style="white-space: pre;" direction="ltr" dominant-baseline="alphabetic">Agosto 24</text></g><g transform="translate(615.3178131749028 10.2028178303527) rotate(0 57.94776153564453 17.5)"><text x="57.94776153564453" y="24.528" font-family="Virgil, Segoe UI Emoji" font-size="28px" fill="#1e1e1e" text-anchor="middle" style="white-space: pre;" direction="ltr" dominant-baseline="alphabetic">Agosto 31</text></g><g transform="translate(779.5731242583674 10.2028178303527) rotate(0 74.26119232177734 17.5)"><text x="74.26119232177734" y="24.528" font-family="Virgil, Segoe UI Emoji" font-size="28px" fill="#1e1e1e" text-anchor="middle" style="white-space: pre;" direction="ltr" dominant-baseline="alphabetic">Septiembre 7</text></g><g transform="translate(980.2861868011728 11.180187855356849) rotate(0 81.26119232177734 17.5)"><text x="81.26119232177734" y="24.528" font-family="Virgil, Segoe UI Emoji" font-size="28px" fill="#1e1e1e" text-anchor="middle" style="white-space: pre;" direction="ltr" dominant-baseline="alphabetic">Septiembre 14</text></g><g stroke-linecap="round" transform="translate(456.70110325256655 163.22160336603724) rotate(0 141.6225426428216 12.98206640892532)"><path d="M1.29 -1.85 L282.72 -1.35 L283.56 24.75 L-0.7 25.55" stroke="none" stroke-width="0" fill="#a5d8ff"></path><path d="M0 0 C58.82 2.24, 115.01 1.51, 283.25 0 M0 0 C79.13 1.47, 158.43 2.01, 283.25 0 M283.25 0 C283.52 7.84, 282.85 14.87, 283.25 25.96 M283.25 0 C282.98 6.2, 282.6 12.78, 283.25 25.96 M283.25 25.96 C179.81 27.47, 74.71 28.23, 0 25.96 M283.25 25.96 C216.36 26.11, 150 26.73, 0 25.96 M0 25.96 C1.69 18.12, -1.72 8.7, 0 0 M0 25.96 C-0.73 20.26, -1.23 14.85, 0 0" stroke="#1e1e1e" stroke-width="2" fill="none"></path></g><g stroke-linecap="round"><g transform="translate(277.9026431660045 22.779248578572577) rotate(0 0 230.72672572226338)"><path d="M0 0 C-0.63 117.76, -0.57 236.37, 0 461.45 M0 0 C-0.21 108.26, -0.17 215.48, 0 461.45" stroke="#1971c2" stroke-width="2" fill="none"></path></g></g><mask></mask><g stroke-linecap="round"><g transform="translate(440.9942084159743 21.008966795537333) rotate(0 0 230.72672572226338)"><path d="M0 0 C-1 170.25, -1.44 340.01, 0 461.45 M0 0 C-0.25 151.7, 0.04 304.44, 0 461.45" stroke="#1971c2" stroke-width="2" fill="none"></path></g></g><mask></mask><g stroke-linecap="round"><g transform="translate(594.6518859014593 15.10802751875309) rotate(0 0 230.72672572226338)"><path d="M0 0 C0.57 168.31, 0.5 338.05, 0 461.45 M0 0 C0.28 181.41, 0.8 362.65, 0 461.45" stroke="#1971c2" stroke-width="2" fill="none"></path></g></g><mask></mask><g stroke-linecap="round"><g transform="translate(760.3870587329081 17.468403229466787) rotate(0 0 230.72672572226338)"><path d="M0 0 C-0.64 168.97, -1.62 337.53, 0 461.45 M0 0 C2.3 96.35, 2.33 193.15, 0 461.45" stroke="#1971c2" stroke-width="2" fill="none"></path></g></g><mask></mask><g stroke-linecap="round"><g transform="translate(956.0846304171282 12.747651808039393) rotate(0 0 230.72672572226338)"><path d="M0 0 C2.05 153.19, 1.62 306.77, 0 461.45 M0 0 C-0.45 133.03, -0.13 265.59, 0 461.45" stroke="#1971c2" stroke-width="2" fill="none"></path></g></g><mask></mask><g stroke-linecap="round"><g transform="translate(136.88598301656737 22.18915465089424) rotate(0 0 230.72672572226338)"><path d="M0 0 C-0.98 150.67, -1.08 301.54, 0 461.45 M0 0 C1.42 150.67, 1.6 302.5, 0 461.45" stroke="#1971c2" stroke-width="2" fill="none"></path></g></g><mask></mask><g stroke-linecap="round" transform="translate(610.7156183766349 211.60930543566798) rotate(0 64.32023811694808 16.522629974995823)"><path d="M-0.61 -0.59 L128.01 0.66 L130.43 33.1 L-1.3 34.92" stroke="none" stroke-width="0" fill="#b2f2bb"></path><path d="M0 0 C33.17 -0.75, 64.48 0.31, 128.64 0 M0 0 C43.69 -0.11, 88.88 0.06, 128.64 0 M128.64 0 C130.61 10.71, 127.27 21.84, 128.64 33.05 M128.64 0 C128.93 6.76, 128.1 14.91, 128.64 33.05 M128.64 33.05 C92.89 33.96, 53.88 32.65, 0 33.05 M128.64 33.05 C83.03 31.21, 35.07 31.14, 0 33.05 M0 33.05 C0.59 27.14, -1.98 17.15, 0 0 M0 33.05 C0.5 22.48, -0.45 12.58, 0 0" stroke="#1e1e1e" stroke-width="2" fill="none"></path></g><g stroke-linecap="round" transform="translate(771.2211667051661 250.55550466244387) rotate(0 87.92399522408493 16.52262997499585)"><path d="M1.41 -0.2 L175.92 1.03 L177.67 33.24 L0.89 34.84" stroke="none" stroke-width="0" fill="#ffc9c9"></path><path d="M0 0 C59.36 0.56, 114.62 0.54, 175.85 0 M0 0 C57.9 0.89, 116.77 0.35, 175.85 0 M175.85 0 C174.85 10.75, 177.69 19.71, 175.85 33.05 M175.85 0 C176.46 11.34, 175.33 20.45, 175.85 33.05 M175.85 33.05 C136.39 31.18, 98.75 33.66, 0 33.05 M175.85 33.05 C108.49 35.17, 41.87 34.1, 0 33.05 M0 33.05 C-1.25 25.61, 1.8 17.38, 0 0 M0 33.05 C0.76 20.16, -0.47 9.71, 0 0" stroke="#1e1e1e" stroke-width="2" fill="none"></path></g><g stroke-linecap="round" transform="translate(772.4013545605228 302.48377029814503) rotate(0 190.01024471245228 17.112723902674304)"><path d="M-1.88 -1.4 L379.91 0.33 L380.49 33.38 L-1.21 36.14" stroke="none" stroke-width="0" fill="#ffec99"></path><path d="M0 0 C91.87 2.49, 182.46 2.17, 380.02 0 M0 0 C150.03 0.02, 300.05 0.19, 380.02 0 M380.02 0 C379.94 11.51, 381.34 18.36, 380.02 34.23 M380.02 0 C379.55 10.27, 380.89 18.3, 380.02 34.23 M380.02 34.23 C302.41 36.87, 224.82 35.95, 0 34.23 M380.02 34.23 C239.45 33.32, 98.54 33.26, 0 34.23 M0 34.23 C0.16 24.81, 1.2 14.33, 0 0 M0 34.23 C1.08 20.33, 0.71 7.36, 0 0" stroke="#1e1e1e" stroke-width="2" fill="none"></path></g><g stroke-linecap="round" transform="translate(974.2134778265433 360.3129752106305) rotate(0 89.10418307944201 16.52262997499588)"><path d="M1.67 -1.38 L177.68 -0.5 L177.62 31.61 L0.22 33.47" stroke="none" stroke-width="0" fill="#b2f2bb"></path><path d="M0 0 C62.45 -3.54, 126.3 0.06, 178.21 0 M0 0 C65.24 -2.08, 131.29 -0.55, 178.21 0 M178.21 0 C178.73 10.74, 176.57 20.74, 178.21 33.05 M178.21 0 C177.86 8.92, 178.88 20.11, 178.21 33.05 M178.21 33.05 C118.36 34.57, 56.46 32.1, 0 33.05 M178.21 33.05 C133.17 34.09, 88.66 32.69, 0 33.05 M0 33.05 C-1.71 26.13, -0.77 18.74, 0 0 M0 33.05 C-0.51 24.27, -0.52 14.26, 0 0" stroke="#1e1e1e" stroke-width="2" fill="none"></path></g><g stroke-linecap="round"><g transform="translate(270.8215160338634 78.24807778034437) rotate(0 41.89666886516807 10.621690698211609)"><path d="M0 0 C18.21 0.59, 36.09 2.85, 51.93 2.36 M0 0 C13.94 1.32, 30.46 1.48, 51.93 2.36 M51.93 2.36 C60.18 7.8, 67.19 13.28, 83.79 21.24 M51.93 2.36 C64.91 9.96, 76.65 16.81, 83.79 21.24" stroke="#1e1e1e" stroke-width="2" fill="none"></path></g><g transform="translate(270.8215160338634 78.24807778034437) rotate(0 41.89666886516807 10.621690698211609)"><path d="M83.39 22.69 L66.99 19.64 L76.75 9.1 L85.35 22.11" stroke="none" stroke-width="0" fill="#1e1e1e" fill-rule="evenodd"></path><path d="M83.79 21.24 C79.49 20.93, 74.93 21.48, 68.88 19.61 M83.79 21.24 C78.82 21.45, 75.79 20.59, 68.88 19.61 M68.88 19.61 C70.59 17.02, 71.36 14.33, 75.46 8.77 M68.88 19.61 C71.77 15.65, 74.04 11.36, 75.46 8.77 M75.46 8.77 C76.31 10.86, 79.52 16.4, 83.79 21.24 M75.46 8.77 C77.81 13.18, 81.4 17.39, 83.79 21.24 M83.79 21.24 C83.79 21.24, 83.79 21.24, 83.79 21.24 M83.79 21.24 C83.79 21.24, 83.79 21.24, 83.79 21.24" stroke="#1e1e1e" stroke-width="2" fill="none"></path></g></g><mask></mask><g stroke-linecap="round"><g transform="translate(433.68744007310806 125.62960719262153) rotate(0 51.92826563570111 11.735996231253289)"><path d="M0 0 C24.68 -0.23, 50.26 -1.28, 79.98 0.84 M0 0 C27.73 0.29, 53.98 0.72, 79.98 0.84 M79.98 0.84 C88.3 10.15, 95.24 16.53, 103.86 23.47 M79.98 0.84 C87.17 8.13, 94.03 14.46, 103.86 23.47" stroke="#1e1e1e" stroke-width="2" fill="none"></path></g><g transform="translate(433.68744007310806 125.62960719262153) rotate(0 51.92826563570111 11.735996231253289)"><path d="M104.17 24.85 L91.55 18.49 L99.41 9.15 L103.19 22.4" stroke="none" stroke-width="0" fill="#1e1e1e" fill-rule="evenodd"></path><path d="M103.86 23.47 C98.09 22.28, 93.04 19.8, 89.56 18.93 M103.86 23.47 C99.29 21.98, 93.63 20.54, 89.56 18.93 M89.56 18.93 C92.76 16.78, 94.94 12.83, 98.15 9.6 M89.56 18.93 C91.89 16.22, 94.2 12.88, 98.15 9.6 M98.15 9.6 C99.69 15.4, 100.69 17.37, 103.86 23.47 M98.15 9.6 C99.06 13.19, 99.93 15.9, 103.86 23.47 M103.86 23.47 C103.86 23.47, 103.86 23.47, 103.86 23.47 M103.86 23.47 C103.86 23.47, 103.86 23.47, 103.86 23.47" stroke="#1e1e1e" stroke-width="2" fill="none"></path></g></g><mask></mask><g stroke-linecap="round"><g transform="translate(683.8872654087593 256.4564439392281) rotate(0 38.946199226776 9.44150284285476)"><path d="M0 0 C0.21 3.53, -0.28 9.94, 0 18.88 M0 0 C-0.52 5.35, 0.78 9.67, 0 18.88 M0 18.88 C24.18 17.28, 50.53 14.4, 77.89 12.98 M0 18.88 C25.33 15.83, 52.7 15.39, 77.89 12.98" stroke="#1e1e1e" stroke-width="2" fill="none"></path></g><g transform="translate(683.8872654087593 256.4564439392281) rotate(0 38.946199226776 9.44150284285476)"><path d="M76.02 12.23 L63.33 19.48 L65.12 7.66 L78.92 12.74" stroke="none" stroke-width="0" fill="#1e1e1e" fill-rule="evenodd"></path><path d="M77.89 12.98 C74.49 13.7, 70.55 16.71, 64.82 20.33 M77.89 12.98 C73.85 15.15, 71.26 16.47, 64.82 20.33 M64.82 20.33 C64.03 16.88, 64.71 12.22, 63.86 7.69 M64.82 20.33 C64.13 15.64, 64.76 12.41, 63.86 7.69 M63.86 7.69 C67.9 8.71, 75.56 12.55, 77.89 12.98 M63.86 7.69 C67.05 9.22, 70 9.77, 77.89 12.98 M77.89 12.98 C77.89 12.98, 77.89 12.98, 77.89 12.98 M77.89 12.98 C77.89 12.98, 77.89 12.98, 77.89 12.98" stroke="#1e1e1e" stroke-width="2" fill="none"></path></g></g><mask></mask><g stroke-linecap="round"><g transform="translate(679.1665139873319 258.8168196499418) rotate(0 41.89666886516807 33.04525994999169)"><path d="M0 0 C-0.21 23.46, -1.61 50.14, 0 66.09 M0 0 C-0.08 22.41, -0.66 43.33, 0 66.09 M0 66.09 C26.43 63.26, 50.47 65.76, 83.79 62.55 M0 66.09 C33.09 64.67, 67.08 64.89, 83.79 62.55" stroke="#1e1e1e" stroke-width="2" fill="none"></path></g><g transform="translate(679.1665139873319 258.8168196499418) rotate(0 41.89666886516807 33.04525994999169)"><path d="M83.22 63.38 L72.05 68.53 L71.32 57.47 L82.79 61.27" stroke="none" stroke-width="0" fill="#1e1e1e" fill-rule="evenodd"></path><path d="M83.79 62.55 C78.92 64.54, 73.06 69, 70.74 69.95 M83.79 62.55 C79.4 65.58, 74.73 67.61, 70.74 69.95 M70.74 69.95 C70.54 64.91, 68.9 63.26, 69.74 57.31 M70.74 69.95 C70.19 64.43, 70.11 60.41, 69.74 57.31 M69.74 57.31 C74.29 58.01, 77.71 59.96, 83.79 62.55 M69.74 57.31 C73.53 59.53, 78.98 61.08, 83.79 62.55 M83.79 62.55 C83.79 62.55, 83.79 62.55, 83.79 62.55 M83.79 62.55 C83.79 62.55, 83.79 62.55, 83.79 62.55" stroke="#1e1e1e" stroke-width="2" fill="none"></path></g></g><mask></mask><g stroke-linecap="round"><g transform="translate(659.1033204462658 258.8168196499418) rotate(0 154.01451512406834 61.369768478556)"><path d="M0 0 C0.32 38.63, 1.07 79.54, 1.18 115.66 M0 0 C-1.34 39.86, 0.52 80.18, 1.18 115.66 M1.18 115.66 C97.13 118.72, 193.2 119.08, 308.03 122.74 M1.18 115.66 C85.23 118.79, 168.13 121.1, 308.03 122.74" stroke="#1e1e1e" stroke-width="2" fill="none"></path></g><g transform="translate(659.1033204462658 258.8168196499418) rotate(0 154.01451512406834 61.369768478556)"><path d="M306.2 122.59 L295.36 129.33 L293.02 116.57 L308.25 121.43" stroke="none" stroke-width="0" fill="#1e1e1e" fill-rule="evenodd"></path><path d="M308.03 122.74 C303.89 123.88, 299.4 126.6, 294.34 128.88 M308.03 122.74 C302.64 124.95, 299.04 127.57, 294.34 128.88 M294.34 128.88 C293.7 125.33, 293.21 119.7, 294.53 116.2 M294.34 128.88 C294.87 125.64, 294.27 122.51, 294.53 116.2 M294.53 116.2 C300.12 119.28, 302.16 121.51, 308.03 122.74 M294.53 116.2 C299.69 118.52, 304.52 121.16, 308.03 122.74 M308.03 122.74 C308.03 122.74, 308.03 122.74, 308.03 122.74 M308.03 122.74 C308.03 122.74, 308.03 122.74, 308.03 122.74" stroke="#1e1e1e" stroke-width="2" fill="none"></path></g></g><mask></mask></svg>