<svg version="1.1" xmlns="http://www.w3.org/2000/svg" viewBox="0 0 514.933333714803 576.6666666666667" width="514.933333714803" height="576.6666666666667">
  <!-- svg-source:excalidraw -->
  
  <defs>
    <style class="style-fonts">
      @font-face {
        font-family: "Virgil";
        src: url("https://excalidraw.com/Virgil.woff2");
      }
      @font-face {
        font-family: "Cascadia";
        src: url("https://excalidraw.com/Cascadia.woff2");
      }
      @font-face {
        font-family: "Assistant";
        src: url("https://excalidraw.com/Assistant-Regular.woff2");
      }
    </style>
    
  </defs>
  <rect x="0" y="0" width="514.933333714803" height="576.6666666666667" fill="#ffffff"></rect><g stroke-opacity="0.7" fill-opacity="0.7" stroke-linecap="round" transform="translate(306.6000003814697 278.6666666666667) rotate(0 99.16666666666663 36.66666666666663)"><path d="M-1.7 0.26 L198.3 0.83 L197.17 73.96 L1.78 74.24" stroke="none" stroke-width="0" fill="#15aabf"></path><path d="M0 0 C79.31 -0.26, 158.45 -2.27, 198.33 0 M0 0 C57.53 -0.68, 114.34 0.24, 198.33 0 M198.33 0 C199.5 20.61, 198.13 39.18, 198.33 73.33 M198.33 0 C197.43 25.22, 198.68 52.4, 198.33 73.33 M198.33 73.33 C132.76 72.74, 64.49 72.12, 0 73.33 M198.33 73.33 C131.3 73.96, 62.45 72.21, 0 73.33 M0 73.33 C0.77 56.36, -1.76 41, 0 0 M0 73.33 C0.82 53.67, 1.15 31.43, 0 0" stroke="#1e1e1e" stroke-width="4" fill="none"></path></g><g stroke-opacity="0.5" fill-opacity="0.5" stroke-linecap="round" transform="translate(181.60000038146973 178.33333333333323) rotate(0 29.16666666666663 26.666666666666657)"><path d="M18.1 0.84 C23.54 -1.34, 32.12 -0.87, 37.99 1.2 C43.86 3.27, 50.07 8.24, 53.33 13.26 C56.59 18.27, 58.44 25.71, 57.55 31.28 C56.65 36.85, 52.61 43.15, 47.98 46.69 C43.34 50.22, 35.8 52.21, 29.73 52.46 C23.65 52.72, 16.37 51.61, 11.51 48.23 C6.66 44.85, 1.75 37.99, 0.59 32.18 C-0.57 26.38, 1.28 18.73, 4.56 13.4 C7.85 8.08, 17.38 2.28, 20.32 0.22 C23.26 -1.84, 22.15 0.49, 22.21 1.06 M19.07 1.69 C24.69 -0.29, 33.81 -1.44, 39.56 0.71 C45.32 2.86, 50.34 9.58, 53.6 14.59 C56.86 19.61, 60.33 25.3, 59.12 30.81 C57.9 36.32, 51.56 44.02, 46.29 47.65 C41.01 51.27, 33.74 52.74, 27.46 52.55 C21.19 52.37, 13.28 49.99, 8.64 46.53 C4.01 43.08, 0.28 37.35, -0.35 31.83 C-0.98 26.31, 1.39 18.73, 4.85 13.4 C8.31 8.07, 18.02 1.68, 20.4 -0.14 C22.79 -1.97, 19.01 1.91, 19.16 2.46" stroke="none" stroke-width="0" fill="#15aabf"></path><path d="M34.73 -0.07 C40.35 0.47, 47.51 5.05, 51.32 9.61 C55.13 14.17, 57.55 21.33, 57.57 27.29 C57.6 33.25, 55.61 40.96, 51.47 45.37 C47.33 49.77, 38.95 52.96, 32.71 53.73 C26.48 54.5, 19.27 53.13, 14.07 50 C8.86 46.86, 3.37 40.57, 1.49 34.92 C-0.39 29.27, 0.55 21.53, 2.79 16.11 C5.04 10.68, 8.91 4.84, 14.96 2.38 C21 -0.07, 34.51 1.04, 39.06 1.36 C43.61 1.67, 42.47 3.83, 42.25 4.28 M22.2 1.57 C27.58 0.28, 35.55 1.37, 41.11 3.58 C46.66 5.78, 52.86 9.57, 55.54 14.78 C58.22 19.99, 58.63 29.15, 57.19 34.83 C55.74 40.52, 52.2 45.7, 46.86 48.88 C41.51 52.07, 31.51 54.74, 25.12 53.96 C18.73 53.18, 12.59 48.48, 8.51 44.2 C4.43 39.91, 0.89 33.53, 0.64 28.26 C0.38 22.99, 3.18 16.92, 6.99 12.55 C10.8 8.19, 21.03 3.97, 23.49 2.04 C25.96 0.12, 21.77 0.75, 21.78 1.01" stroke="#1e1e1e" stroke-width="4" fill="none"></path></g><g stroke-opacity="0.5" fill-opacity="0.5" stroke-linecap="round" transform="translate(77.4333337148031 323.3333333333331) rotate(0 29.16666666666663 26.666666666666657)"><path d="M41.92 1.58 C47.28 3.59, 52.39 10.69, 54.99 15.97 C57.59 21.26, 59.21 27.84, 57.53 33.28 C55.84 38.73, 49.9 45.44, 44.89 48.62 C39.87 51.81, 33.48 52.91, 27.42 52.39 C21.35 51.87, 13.1 49.34, 8.5 45.52 C3.89 41.69, 0.23 35.3, -0.2 29.44 C-0.62 23.58, 2.22 15.16, 5.94 10.34 C9.66 5.52, 15.74 1.63, 22.13 0.5 C28.52 -0.62, 40.22 2.76, 44.28 3.59 C48.34 4.43, 46.6 4.97, 46.48 5.5 M38.43 2.32 C44.02 3.72, 49.62 8.34, 52.86 12.91 C56.1 17.49, 58.63 24.37, 57.84 29.75 C57.05 35.13, 52.8 41.12, 48.14 45.2 C43.49 49.29, 36.08 53.97, 29.9 54.27 C23.73 54.56, 16.01 50.47, 11.1 46.94 C6.2 43.42, 2.03 38.41, 0.49 33.11 C-1.05 27.81, -0.99 20.35, 1.86 15.14 C4.72 9.93, 11.47 3.98, 17.63 1.86 C23.78 -0.25, 35.4 2.67, 38.78 2.42 C42.16 2.17, 38.15 0.06, 37.91 0.36" stroke="none" stroke-width="0" fill="#15aabf"></path><path d="M26.72 1 C32.36 -0.17, 39.74 1.13, 44.9 4.15 C50.05 7.17, 55.94 13.65, 57.65 19.11 C59.35 24.58, 57.8 31.86, 55.11 36.95 C52.43 42.05, 47.14 47.14, 41.55 49.67 C35.97 52.21, 27.73 53.43, 21.6 52.17 C15.48 50.91, 8.43 46.75, 4.81 42.12 C1.18 37.5, -0.75 30.11, -0.15 24.42 C0.44 18.72, 3.35 12.09, 8.38 7.94 C13.42 3.8, 25.94 0.76, 30.06 -0.46 C34.18 -1.67, 33.34 0.04, 33.09 0.65 M41.14 1.07 C46.69 2.41, 51.48 7.3, 54.01 12.41 C56.54 17.51, 57.66 25.89, 56.33 31.71 C55 37.52, 50.81 43.88, 46.03 47.31 C41.26 50.75, 33.91 52.58, 27.67 52.33 C21.43 52.08, 13.07 49.47, 8.57 45.81 C4.08 42.16, 1.63 36.09, 0.7 30.4 C-0.23 24.71, -0.26 16.24, 3 11.65 C6.26 7.05, 14.36 4.64, 20.26 2.83 C26.15 1.03, 35.17 1.07, 38.37 0.84 C41.58 0.61, 39.57 1.07, 39.48 1.46" stroke="#1e1e1e" stroke-width="4" fill="none"></path></g><g stroke-linecap="round"><g transform="translate(216.93959857519872 245.0223623898884) rotate(0 -0.9264223520765427 121.25547401004651)"><path d="M0 0 C-0.98 29.15, -1.45 56.55, 1.33 103.31 M0 0 C2.08 33.03, 1.65 67.81, 1.33 103.31 M1.33 103.31 C-2.36 145.04, -1.95 184.85, -3.18 242.51 M1.33 103.31 C-1.86 138.82, -1.78 174.7, -3.18 242.51" stroke="#1e1e1e" stroke-width="4" fill="none"></path></g><g transform="translate(216.93959857519872 245.0223623898884) rotate(0 -0.9264223520765427 121.25547401004651)"><path d="M-4.64 240.75 L-10.48 230.74 L4.41 230.5 L-1.44 243.64" stroke="none" stroke-width="0" fill="#1e1e1e" fill-rule="evenodd"></path><path d="M-3.18 242.51 C-5.27 239.24, -7.58 234.64, -9.27 228.8 M-3.18 242.51 C-4.81 237.44, -7.46 233.65, -9.27 228.8 M-9.27 228.8 C-6.69 229.6, -1.92 229.29, 3.41 229.04 M-9.27 228.8 C-6.6 228.6, -2.53 228.59, 3.41 229.04 M3.41 229.04 C1.97 232.4, -0.03 235.65, -3.18 242.51 M3.41 229.04 C2.47 232.57, 0.79 234.62, -3.18 242.51 M-3.18 242.51 C-3.18 242.51, -3.18 242.51, -3.18 242.51 M-3.18 242.51 C-3.18 242.51, -3.18 242.51, -3.18 242.51" stroke="#1e1e1e" stroke-width="4" fill="none"></path></g></g><mask></mask><g stroke-linecap="round"><g transform="translate(205.38013817654678 79.8374805192696) rotate(0 1.8164146775399104 42.59445313292562)"><path d="M0 0 C1.71 25.55, 0.07 51.79, 3.63 85.19 M0 0 C2.1 28.74, 2.76 59.86, 3.63 85.19" stroke="#1e1e1e" stroke-width="4" fill="none"></path></g><g transform="translate(205.38013817654678 79.8374805192696) rotate(0 1.8164146775399104 42.59445313292562)"><path d="M1.67 85.87 L-3.25 69.88 L8 70.5 L2.56 84.5" stroke="none" stroke-width="0" fill="#1e1e1e" fill-rule="evenodd"></path><path d="M3.63 85.19 C2.23 80.53, -1.93 76.33, -3.14 71.8 M3.63 85.19 C1.33 79.93, -1.46 76.52, -3.14 71.8 M-3.14 71.8 C1.06 70.73, 6.67 70.61, 9.53 71.4 M-3.14 71.8 C-0.7 71.21, 1.77 71.4, 9.53 71.4 M9.53 71.4 C7.57 75.04, 6.5 77.78, 3.63 85.19 M9.53 71.4 C7.47 75.62, 5.96 79.31, 3.63 85.19 M3.63 85.19 C3.63 85.19, 3.63 85.19, 3.63 85.19 M3.63 85.19 C3.63 85.19, 3.63 85.19, 3.63 85.19" stroke="#1e1e1e" stroke-width="4" fill="none"></path></g></g><mask></mask><g stroke-linecap="round"><g transform="translate(129.4857445998523 378.75793298659727) rotate(0 29.985069898829295 59.19755780612269)"><path d="M0 0 C14.92 30.16, 31.11 60.57, 59.97 118.4 M0 0 C17.95 35.82, 35.92 69.83, 59.97 118.4" stroke="#1e1e1e" stroke-width="4" fill="none"></path></g><g transform="translate(129.4857445998523 378.75793298659727) rotate(0 29.985069898829295 59.19755780612269)"><path d="M59.31 118.44 L47.11 110.07 L58.22 104.5 L60.4 119.12" stroke="none" stroke-width="0" fill="#1e1e1e" fill-rule="evenodd"></path><path d="M59.97 118.4 C57.2 115.78, 54.86 113.54, 48.21 109.08 M59.97 118.4 C55.96 116.15, 52.46 112.3, 48.21 109.08 M48.21 109.08 C51.43 107.98, 55.62 104.4, 59.54 103.4 M48.21 109.08 C50.92 107.46, 54.38 106.58, 59.54 103.4 M59.54 103.4 C58.97 110, 59.46 115.49, 59.97 118.4 M59.54 103.4 C59.95 108.17, 60.43 112.21, 59.97 118.4 M59.97 118.4 C59.97 118.4, 59.97 118.4, 59.97 118.4 M59.97 118.4 C59.97 118.4, 59.97 118.4, 59.97 118.4" stroke="#1e1e1e" stroke-width="4" fill="none"></path></g></g><mask></mask><g stroke-linecap="round"><g stroke-opacity="0.9" fill-opacity="0.9" transform="translate(185.150792762033 239.78708695335249) rotate(0 -29.023086283670523 37.65825078306902)"><path d="M0 0 C-21.41 29.92, -44.29 58.38, -58.05 75.32 M0 0 C-22.15 28.92, -45.1 59.14, -58.05 75.32" stroke="#1e1e1e" stroke-width="4" fill="none"></path></g><g stroke-opacity="0.9" fill-opacity="0.9" transform="translate(185.150792762033 239.78708695335249) rotate(0 -29.023086283670523 37.65825078306902)"><path d="M-59.43 74.75 L-54.52 61.27 L-44.75 68.71 L-57.23 73.89" stroke="none" stroke-width="0" fill="#1e1e1e" fill-rule="evenodd"></path><path d="M-58.05 75.32 C-55.77 70.73, -55.18 65.18, -54.65 60.71 M-58.05 75.32 C-56.22 69.01, -55.16 64, -54.65 60.71 M-54.65 60.71 C-51.21 64.37, -47.9 65.22, -44.67 68.53 M-54.65 60.71 C-52.42 62.23, -50.3 64.13, -44.67 68.53 M-44.67 68.53 C-49.04 71.12, -49.42 72.38, -58.05 75.32 M-44.67 68.53 C-49.91 71.24, -54.11 73.14, -58.05 75.32 M-58.05 75.32 C-58.05 75.32, -58.05 75.32, -58.05 75.32 M-58.05 75.32 C-58.05 75.32, -58.05 75.32, -58.05 75.32" stroke="#1e1e1e" stroke-width="4" fill="none"></path></g></g><mask></mask><g stroke-opacity="0.5" fill-opacity="0.5" stroke-linecap="round" transform="translate(194.10000038146973 48.33333333333343) rotate(0 10.833333333333258 10.833333333333314)"><path d="M8.68 -0.31 C10.89 -0.89, 14.35 0.28, 16.46 1.58 C18.56 2.88, 20.49 5.3, 21.31 7.49 C22.12 9.67, 22.15 12.58, 21.34 14.69 C20.52 16.79, 18.49 19.06, 16.4 20.13 C14.3 21.2, 11.12 21.45, 8.76 21.11 C6.4 20.77, 3.65 19.77, 2.24 18.09 C0.82 16.42, 0.19 13.37, 0.25 11.08 C0.32 8.8, 1.13 6.22, 2.63 4.39 C4.13 2.57, 8.05 0.78, 9.24 0.11 C10.44 -0.55, 9.68 0.27, 9.79 0.41 M13.99 -0.37 C16.29 -0.1, 18.7 1.96, 20.07 3.86 C21.43 5.77, 22.53 8.58, 22.2 11.08 C21.87 13.59, 19.86 17.2, 18.09 18.9 C16.31 20.59, 13.7 21.08, 11.55 21.23 C9.39 21.37, 7.01 20.9, 5.16 19.78 C3.31 18.66, 1.03 16.86, 0.45 14.52 C-0.12 12.18, 0.76 8.07, 1.7 5.75 C2.64 3.43, 4.09 1.49, 6.09 0.59 C8.09 -0.31, 12.44 0.43, 13.69 0.35 C14.93 0.28, 13.63 0.07, 13.54 0.15" stroke="none" stroke-width="0" fill="#15aabf"></path><path d="M7.89 0.53 C9.94 -0.11, 13.04 -0.15, 15.2 0.84 C17.35 1.83, 19.82 4.36, 20.82 6.47 C21.83 8.58, 21.91 11.35, 21.23 13.51 C20.55 15.66, 18.73 18.04, 16.75 19.38 C14.76 20.72, 11.65 21.71, 9.33 21.54 C7 21.37, 4.37 20.02, 2.81 18.35 C1.24 16.68, 0.05 13.91, -0.04 11.53 C-0.14 9.14, 0.69 5.87, 2.22 4.04 C3.75 2.22, 7.92 1.22, 9.12 0.59 C10.31 -0.04, 9.44 0.11, 9.39 0.28 M9.14 0.65 C11.22 -0.05, 14.34 -0.02, 16.42 1.12 C18.5 2.27, 20.79 5.39, 21.64 7.51 C22.48 9.63, 22.3 11.72, 21.5 13.83 C20.71 15.94, 18.93 18.84, 16.87 20.16 C14.82 21.48, 11.57 22.11, 9.16 21.76 C6.76 21.41, 4.02 19.85, 2.44 18.07 C0.87 16.29, -0.4 13.3, -0.3 11.08 C-0.19 8.86, 1.68 6.59, 3.07 4.76 C4.46 2.92, 7.08 0.81, 8.07 0.07 C9.05 -0.68, 8.82 0.11, 8.98 0.27" stroke="#1e1e1e" stroke-width="4" fill="none"></path></g><g stroke-opacity="0.9" fill-opacity="0.9" transform="translate(355.958333969116 297.99999999999994) rotate(0 50.641666412353516 17.5)"><text x="50.641666412353516" y="24.528" font-family="Virgil, Segoe UI Emoji" font-size="28px" fill="#1e1e1e" text-anchor="middle" style="white-space: pre;" direction="ltr" dominant-baseline="alphabetic">CC = 2</text></g><g stroke-opacity="0.5" fill-opacity="0.5" stroke-linecap="round" transform="translate(199.10000038146984 499.1666666666666) rotate(0 10.833333333333258 10.833333333333314)"><path d="M10.21 0.02 C12.46 -0.16, 16.05 1.39, 17.87 2.77 C19.69 4.15, 20.74 6.03, 21.11 8.31 C21.49 10.59, 21.27 14.35, 20.12 16.45 C18.97 18.55, 16.29 20.14, 14.22 20.91 C12.15 21.68, 9.88 21.77, 7.71 21.07 C5.54 20.36, 2.47 18.68, 1.18 16.69 C-0.1 14.71, -0.4 11.43, 0 9.17 C0.4 6.9, 1.84 4.64, 3.61 3.1 C5.37 1.56, 9.32 0.45, 10.59 -0.08 C11.85 -0.61, 11.21 -0.3, 11.19 -0.09 M12.2 0.3 C14.24 0.43, 16.56 1.41, 18.25 3.16 C19.95 4.91, 22.13 8.39, 22.37 10.79 C22.61 13.2, 21.23 15.81, 19.69 17.6 C18.14 19.39, 15.34 21.17, 13.08 21.52 C10.82 21.87, 8.23 20.84, 6.14 19.71 C4.05 18.58, 1.57 16.86, 0.54 14.73 C-0.49 12.6, -0.74 9.13, -0.04 6.94 C0.66 4.76, 2.59 2.79, 4.75 1.63 C6.91 0.48, 11.73 0.29, 12.91 0.03 C14.1 -0.24, 12.04 -0.27, 11.84 0.03" stroke="none" stroke-width="0" fill="#15aabf"></path><path d="M12.27 -0.03 C14.45 0.05, 16.76 1.71, 18.33 3.39 C19.91 5.06, 21.43 7.78, 21.7 10.01 C21.97 12.25, 21.29 14.96, 19.94 16.79 C18.6 18.63, 15.96 20.3, 13.63 21.01 C11.29 21.72, 8.06 22.06, 5.94 21.04 C3.83 20.03, 1.94 17.03, 0.95 14.92 C-0.03 12.81, -0.53 10.48, 0.03 8.37 C0.59 6.27, 2.35 3.63, 4.34 2.3 C6.32 0.97, 10.65 0.71, 11.95 0.38 C13.25 0.05, 12.15 0.26, 12.11 0.33 M11.28 -0.65 C13.33 -0.81, 15.89 1.17, 17.6 2.86 C19.31 4.55, 21.05 7.31, 21.53 9.48 C22.01 11.65, 21.75 13.85, 20.46 15.9 C19.16 17.95, 16.09 20.93, 13.75 21.79 C11.42 22.64, 8.62 22.06, 6.45 21.02 C4.29 19.97, 1.85 17.72, 0.74 15.53 C-0.37 13.33, -0.73 10.04, -0.19 7.87 C0.35 5.7, 2.04 3.85, 3.95 2.52 C5.87 1.18, 10.2 0.17, 11.31 -0.14 C12.42 -0.45, 10.7 0.44, 10.61 0.65" stroke="#1e1e1e" stroke-width="4" fill="none"></path></g><g stroke-opacity="0.7" fill-opacity="0.7" transform="translate(174.84166653951013 10) rotate(0 35.09166717529297 17.5)"><text x="35.09166717529297" y="24.528" font-family="Virgil, Segoe UI Emoji" font-size="28px" fill="#1e1e1e" text-anchor="middle" style="white-space: pre;" direction="ltr" dominant-baseline="alphabetic">Inicio</text></g><g stroke-opacity="0.7" fill-opacity="0.7" transform="translate(171.35833422342932 531.6666666666667) rotate(0 41.90833282470703 17.5)"><text x="41.90833282470703" y="24.528" font-family="Virgil, Segoe UI Emoji" font-size="28px" fill="#1e1e1e" text-anchor="middle" style="white-space: pre;" direction="ltr" dominant-baseline="alphabetic">Salida</text></g><g stroke-opacity="0.7" fill-opacity="0.7" transform="translate(146.73333358764648 184.99999999999997) rotate(0 9.866666793823242 17.5)"><text x="9.866666793823242" y="24.528" font-family="Virgil, Segoe UI Emoji" font-size="28px" fill="#1e1e1e" text-anchor="middle" style="white-space: pre;" direction="ltr" dominant-baseline="alphabetic">if</text></g><g stroke-opacity="0.7" fill-opacity="0.7" transform="translate(10 331.66666666666663) rotate(0 26.600000381469727 17.5)"><text x="26.600000381469727" y="24.528" font-family="Virgil, Segoe UI Emoji" font-size="28px" fill="#1e1e1e" text-anchor="middle" style="white-space: pre;" direction="ltr" dominant-baseline="alphabetic">else</text></g></svg>