<svg version="1.1" xmlns="http://www.w3.org/2000/svg" viewBox="0 0 722.7500025431315 389.50000000000017" width="722.7500025431315" height="389.50000000000017">
  <!-- svg-source:excalidraw -->
  
  <defs>
    <style class="style-fonts">
      @font-face {
        font-family: "Virgil";
        src: url("https://excalidraw.com/Virgil.woff2");
      }
      @font-face {
        font-family: "Cascadia";
        src: url("https://excalidraw.com/Cascadia.woff2");
      }
      @font-face {
        font-family: "Assistant";
        src: url("https://excalidraw.com/Assistant-Regular.woff2");
      }
    </style>
    
  </defs>
  <rect x="0" y="0" width="722.7500025431315" height="389.50000000000017" fill="#ffffff"></rect><g transform="translate(253.3416646321612 158.6666666666668) rotate(0 102.55833435058597 22.5)"><text x="102.55833435058594" y="31.536" font-family="Virgil, Segoe UI Emoji" font-size="36px" fill="#1e1e1e" text-anchor="middle" style="white-space: pre;" direction="ltr" dominant-baseline="alphabetic">Controlador</text></g><g transform="translate(10 156) rotate(0 58.56666564941406 22.5)"><text x="58.56666564941406" y="31.536" font-family="Virgil, Segoe UI Emoji" font-size="36px" fill="#1e1e1e" text-anchor="middle" style="white-space: pre;" direction="ltr" dominant-baseline="alphabetic">Modelo</text></g><g transform="translate(521.6999982198079 334.50000000000017) rotate(0 45.20000076293945 22.5)"><text x="45.20000076293945" y="31.536" font-family="Virgil, Segoe UI Emoji" font-size="36px" fill="#1e1e1e" text-anchor="middle" style="white-space: pre;" direction="ltr" dominant-baseline="alphabetic">Vista</text></g><g transform="translate(579.7166620890299 125.5) rotate(0 66.51667022705078 22.5)"><text x="66.51667022705078" y="31.536" font-family="Virgil, Segoe UI Emoji" font-size="36px" fill="#1e1e1e" text-anchor="middle" style="white-space: pre;" direction="ltr" dominant-baseline="alphabetic">Usuario</text></g><g stroke-opacity="0.5" fill-opacity="0.5" stroke-linecap="round" transform="translate(624.566665649414 10) rotate(0 26.66666666666663 25)"><path d="M23.76 0.97 C29.06 0.01, 37.55 1.05, 42.28 4.11 C47 7.17, 50.52 14.14, 52.09 19.33 C53.67 24.53, 53.89 30.42, 51.72 35.29 C49.54 40.15, 44.24 46.38, 39.05 48.53 C33.86 50.69, 26.23 49.86, 20.58 48.23 C14.93 46.6, 8.67 42.95, 5.14 38.76 C1.62 34.56, -0.93 28.44, -0.57 23.05 C-0.22 17.67, 2.74 10.31, 7.26 6.44 C11.78 2.57, 23.03 0.74, 26.55 -0.14 C30.06 -1.02, 28.31 0.69, 28.34 1.15 M38.54 2.19 C43.57 4.13, 48.64 9.54, 51.21 14.32 C53.79 19.11, 55.32 25.58, 53.99 30.89 C52.66 36.21, 48.25 43, 43.23 46.19 C38.21 49.38, 29.87 50.69, 23.86 50.04 C17.85 49.38, 11.25 45.85, 7.19 42.28 C3.12 38.7, -0.04 33.58, -0.54 28.6 C-1.03 23.61, 0.98 16.95, 4.23 12.37 C7.47 7.78, 13.67 2.81, 18.93 1.09 C24.19 -0.63, 32.95 1.62, 35.81 2.04 C38.67 2.45, 36.08 3.15, 36.08 3.56" stroke="none" stroke-width="0" fill="#15aabf"></path><path d="M28.9 -0.34 C34.24 -0.3, 41.83 2.93, 45.74 6.87 C49.66 10.8, 51.84 17.68, 52.41 23.28 C52.98 28.87, 52.4 36.03, 49.14 40.44 C45.89 44.84, 38.45 48.64, 32.88 49.71 C27.31 50.78, 20.85 49.13, 15.73 46.88 C10.61 44.62, 4.68 40.84, 2.15 36.18 C-0.39 31.52, -0.94 24.16, 0.53 18.91 C1.99 13.66, 5.4 7.63, 10.95 4.68 C16.49 1.73, 29.65 1.49, 33.8 1.21 C37.95 0.93, 36.14 2.81, 35.82 3 M15.43 2.91 C20.4 0.74, 28.54 0.29, 33.95 1.83 C39.37 3.37, 44.85 7.72, 47.91 12.15 C50.98 16.57, 52.76 23.07, 52.32 28.39 C51.88 33.7, 49.19 40.69, 45.27 44.03 C41.35 47.38, 34.41 48.12, 28.81 48.46 C23.22 48.8, 16.56 49.13, 11.69 46.07 C6.81 43.01, 1.23 35.22, -0.42 30.11 C-2.07 25, -1.11 20.17, 1.77 15.42 C4.65 10.67, 14.38 3.89, 16.85 1.61 C19.33 -0.66, 16.76 1.45, 16.62 1.75" stroke="#1e1e1e" stroke-width="4" fill="none"></path></g><g stroke-opacity="0.5" fill-opacity="0.5" stroke-linecap="round" transform="translate(608.5666656494138 60.666666666666856) rotate(0 42.5 30.833333333333314)"><path d="M32.23 1.66 C39.44 -0.08, 49.43 0.25, 56.93 2.21 C64.43 4.16, 72.54 8.21, 77.23 13.39 C81.91 18.57, 85.18 27.14, 85.04 33.28 C84.91 39.42, 81.68 45.76, 76.41 50.22 C71.15 54.69, 61.7 58.39, 53.45 60.08 C45.2 61.77, 34.82 62.34, 26.9 60.36 C18.98 58.39, 10.37 53.31, 5.93 48.24 C1.49 43.17, -0.45 36.06, 0.24 29.94 C0.93 23.83, 3.8 16.38, 10.08 11.54 C16.36 6.69, 32.18 2.71, 37.93 0.87 C43.68 -0.97, 44.28 0.14, 44.56 0.52 M45.01 1.34 C52.89 1.48, 64.54 3.12, 70.92 7.01 C77.29 10.89, 81.48 18.8, 83.27 24.67 C85.06 30.53, 84.8 36.97, 81.67 42.19 C78.54 47.41, 71.7 52.73, 64.5 56.01 C57.29 59.29, 46.64 61.97, 38.44 61.87 C30.24 61.77, 21.69 59.26, 15.3 55.41 C8.9 51.56, 2.33 45, 0.06 38.76 C-2.21 32.52, -1.62 23.83, 1.67 17.97 C4.96 12.1, 12.68 6.52, 19.8 3.57 C26.93 0.63, 39.94 0.68, 44.41 0.3 C48.87 -0.07, 46.65 0.61, 46.61 1.32" stroke="none" stroke-width="0" fill="#15aabf"></path><path d="M50.7 1.28 C58.29 1.92, 66.98 5.52, 72.51 9.68 C78.03 13.84, 82.71 20.17, 83.85 26.22 C84.99 32.28, 83.22 40.49, 79.35 46.02 C75.49 51.55, 68.11 56.88, 60.66 59.4 C53.22 61.93, 42.99 62.4, 34.67 61.17 C26.34 59.94, 16.53 56.31, 10.71 52.04 C4.89 47.76, 0.7 41.51, -0.26 35.54 C-1.22 29.57, 0.73 21.54, 4.95 16.23 C9.16 10.92, 16.16 5.93, 25.03 3.69 C33.9 1.46, 51.69 2.71, 58.19 2.82 C64.7 2.93, 64.3 4.08, 64.07 4.34 M31.76 0.69 C39.34 -1.45, 51.53 -0.43, 59 1.78 C66.47 4, 72.34 8.75, 76.59 13.99 C80.84 19.24, 84.56 27.15, 84.48 33.26 C84.41 39.37, 81.5 46.03, 76.16 50.63 C70.82 55.24, 60.4 59.24, 52.45 60.91 C44.5 62.59, 36 63.03, 28.45 60.68 C20.89 58.32, 12.06 51.95, 7.11 46.78 C2.15 41.61, -1.71 35.69, -1.28 29.65 C-0.84 23.6, 4.18 15.26, 9.72 10.5 C15.26 5.75, 28.43 2.4, 31.97 1.12 C35.5 -0.15, 30.82 2.31, 30.92 2.84" stroke="#1e1e1e" stroke-width="4" fill="none"></path></g><g stroke-linecap="round"><g stroke-opacity="0.5" fill-opacity="0.5" transform="translate(258.566665649414 147.0000000000001) rotate(0 -85.83333333333331 -35.83333333333334)"><path d="M0 0 C-26.22 -25.76, -48.07 -48.9, -68.33 -71.67 M0 0 C-15.51 -14.71, -27.96 -30.22, -68.33 -71.67 M-68.33 -71.67 C-94.57 -59.01, -119.01 -43.14, -171.67 -13.33 M-68.33 -71.67 C-101.11 -54.1, -132.57 -36.07, -171.67 -13.33" stroke="#1e1e1e" stroke-width="4" fill="none"></path></g><g stroke-opacity="0.5" fill-opacity="0.5" transform="translate(258.566665649414 147.0000000000001) rotate(0 -85.83333333333331 -35.83333333333334)"><path d="M-170.41 -13.06 L-161.12 -26.49 L-158.14 -12.72 L-170.17 -13.71" stroke="none" stroke-width="0" fill="#1e1e1e" fill-rule="evenodd"></path><path d="M-171.67 -13.33 C-170.19 -17.9, -165.75 -20.84, -163.07 -25.63 M-171.67 -13.33 C-170.64 -16.01, -167.59 -19.06, -163.07 -25.63 M-163.07 -25.63 C-162.33 -24.08, -160.28 -20.37, -156.72 -14.65 M-163.07 -25.63 C-161.53 -21.94, -159.33 -18.52, -156.72 -14.65 M-156.72 -14.65 C-159.33 -13.11, -162.94 -14.73, -171.67 -13.33 M-156.72 -14.65 C-160.93 -14.73, -166.61 -14.1, -171.67 -13.33 M-171.67 -13.33 C-171.67 -13.33, -171.67 -13.33, -171.67 -13.33 M-171.67 -13.33 C-171.67 -13.33, -171.67 -13.33, -171.67 -13.33" stroke="#1e1e1e" stroke-width="4" fill="none"></path></g></g><mask></mask><g stroke-linecap="round"><g stroke-opacity="0.5" fill-opacity="0.5" transform="translate(90.23333231608075 213.66666666666674) rotate(0 80.83333333333331 35.83333333333334)"><path d="M0 0 C27.37 25.72, 59.18 48.46, 88.33 71.67 M0 0 C22.28 18.77, 46.06 37.62, 88.33 71.67 M88.33 71.67 C105.75 55.7, 118.66 42.74, 161.67 3.33 M88.33 71.67 C106.67 53.58, 126.21 35.1, 161.67 3.33" stroke="#1e1e1e" stroke-width="4" fill="none"></path></g><g stroke-opacity="0.5" fill-opacity="0.5" transform="translate(90.23333231608075 213.66666666666674) rotate(0 80.83333333333331 35.83333333333334)"><path d="M159.99 2.47 L155.67 19.07 L147.3 8.25 L162.05 4.67" stroke="none" stroke-width="0" fill="#1e1e1e" fill-rule="evenodd"></path><path d="M161.67 3.33 C158.43 8.68, 158.42 12.51, 155.84 17.16 M161.67 3.33 C159.83 7.23, 159.22 11.15, 155.84 17.16 M155.84 17.16 C154.98 14.58, 150.97 13.88, 147.33 7.76 M155.84 17.16 C153.52 14.96, 151.77 11.96, 147.33 7.76 M147.33 7.76 C152.89 6.28, 158.43 4.11, 161.67 3.33 M147.33 7.76 C152.1 5.66, 157.12 4.22, 161.67 3.33 M161.67 3.33 C161.67 3.33, 161.67 3.33, 161.67 3.33 M161.67 3.33 C161.67 3.33, 161.67 3.33, 161.67 3.33" stroke="#1e1e1e" stroke-width="4" fill="none"></path></g></g><mask></mask><g stroke-linecap="round"><g stroke-opacity="0.5" fill-opacity="0.5" transform="translate(571.8999989827474 113.66666666666674) rotate(0 -54.16666666666674 5.000000000000028)"><path d="M0 0 C-25.68 -8.28, -48.88 -14.87, -66.67 -21.67 M0 0 C-20.24 -5.19, -40.37 -12.2, -66.67 -21.67 M-66.67 -21.67 C-74.51 -11.36, -86.7 3.85, -108.33 31.67 M-66.67 -21.67 C-82.51 -1.76, -97.14 14.8, -108.33 31.67" stroke="#1e1e1e" stroke-width="4" fill="none"></path></g><g stroke-opacity="0.5" fill-opacity="0.5" transform="translate(571.8999989827474 113.66666666666674) rotate(0 -54.16666666666674 5.000000000000028)"><path d="M-109.53 30.5 L-106.44 17.28 L-95.55 23.36 L-109.1 31.96" stroke="none" stroke-width="0" fill="#1e1e1e" fill-rule="evenodd"></path><path d="M-108.33 31.67 C-107.9 26.31, -105.6 21.93, -105.53 16.93 M-108.33 31.67 C-107.55 27.71, -106.7 22.9, -105.53 16.93 M-105.53 16.93 C-102.08 17.57, -101.28 21.07, -95.25 24.34 M-105.53 16.93 C-102.56 20.02, -99.08 21.35, -95.25 24.34 M-95.25 24.34 C-98.04 26.98, -103.26 28.4, -108.33 31.67 M-95.25 24.34 C-98.59 27.04, -104.12 29.45, -108.33 31.67 M-108.33 31.67 C-108.33 31.67, -108.33 31.67, -108.33 31.67 M-108.33 31.67 C-108.33 31.67, -108.33 31.67, -108.33 31.67" stroke="#1e1e1e" stroke-width="4" fill="none"></path></g></g><mask></mask><g stroke-linecap="round"><g stroke-opacity="0.5" fill-opacity="0.5" transform="translate(450.2333323160807 210.33333333333343) rotate(0 28.33333333333337 55.833333333333314)"><path d="M0 0 C-0.1 21.29, -0.92 43.35, -1.67 66.67 M0 0 C-0.54 15.15, -1.61 30.04, -1.67 66.67 M-1.67 66.67 C21.54 84.97, 46.76 100.87, 58.33 111.67 M-1.67 66.67 C13.37 77.52, 27.02 88.24, 58.33 111.67" stroke="#1e1e1e" stroke-width="4" fill="none"></path></g><g stroke-opacity="0.5" fill-opacity="0.5" transform="translate(450.2333323160807 210.33333333333343) rotate(0 28.33333333333337 55.833333333333314)"><path d="M58.34 112.86 L44.75 108.79 L49.77 98.6 L56.75 112.1" stroke="none" stroke-width="0" fill="#1e1e1e" fill-rule="evenodd"></path><path d="M58.33 111.67 C53.29 109.63, 48.15 108.3, 43.66 108.56 M58.33 111.67 C54.85 110.82, 50.93 109.64, 43.66 108.56 M43.66 108.56 C46.14 104.71, 49.98 99.34, 51.28 98.43 M43.66 108.56 C45.96 106.12, 47.27 103.59, 51.28 98.43 M51.28 98.43 C51.48 100.87, 53.71 105.07, 58.33 111.67 M51.28 98.43 C52.5 101.61, 55.11 104.49, 58.33 111.67 M58.33 111.67 C58.33 111.67, 58.33 111.67, 58.33 111.67 M58.33 111.67 C58.33 111.67, 58.33 111.67, 58.33 111.67" stroke="#1e1e1e" stroke-width="4" fill="none"></path></g></g><mask></mask><g stroke-linecap="round"><g stroke-opacity="0.5" fill-opacity="0.5" transform="translate(626.8999989827474 335.3333333333333) rotate(0 25.833333333333258 -78.33333333333329)"><path d="M0 0 C17.03 -23.38, 30.82 -50.76, 51.67 -76.67 M0 0 C10.03 -16.29, 21.7 -33.92, 51.67 -76.67 M51.67 -76.67 C51.34 -106.34, 50.76 -132.97, 48.33 -156.67 M51.67 -76.67 C51.63 -99.16, 50.25 -122.21, 48.33 -156.67" stroke="#1e1e1e" stroke-width="4" fill="none"></path></g><g stroke-opacity="0.5" fill-opacity="0.5" transform="translate(626.8999989827474 335.3333333333333) rotate(0 25.833333333333258 -78.33333333333329)"><path d="M48.08 -156.48 L55.88 -143.11 L43.58 -142.46 L48.75 -157.25" stroke="none" stroke-width="0" fill="#1e1e1e" fill-rule="evenodd"></path><path d="M48.33 -156.67 C51.55 -151.59, 51.86 -149.73, 55.41 -143.44 M48.33 -156.67 C49.17 -153.42, 51.07 -151.33, 55.41 -143.44 M55.41 -143.44 C51.18 -143.99, 47.07 -142.62, 42.75 -142.74 M55.41 -143.44 C52.35 -143.14, 48.48 -143.14, 42.75 -142.74 M42.75 -142.74 C45.21 -145.03, 44.47 -148.51, 48.33 -156.67 M42.75 -142.74 C45.29 -148.29, 47.1 -152.6, 48.33 -156.67 M48.33 -156.67 C48.33 -156.67, 48.33 -156.67, 48.33 -156.67 M48.33 -156.67 C48.33 -156.67, 48.33 -156.67, 48.33 -156.67" stroke="#1e1e1e" stroke-width="4" fill="none"></path></g></g><mask></mask></svg>