<svg version="1.1" xmlns="http://www.w3.org/2000/svg" viewBox="0 0 1128.775001525879 590.833333333333" width="1128.775001525879" height="590.833333333333">
  <!-- svg-source:excalidraw -->
  
  <defs>
    <style class="style-fonts">
      @font-face {
        font-family: "Virgil";
        src: url("https://excalidraw.com/Virgil.woff2");
      }
      @font-face {
        font-family: "Cascadia";
        src: url("https://excalidraw.com/Cascadia.woff2");
      }
    </style>
    
  </defs>
  <rect x="0" y="0" width="1128.775001525879" height="590.833333333333" fill="#ffffff"></rect><g transform="translate(499.8499984741211 416.41666666666663) rotate(0 80.84166717529297 22.5)"><text x="80.84166717529297" y="0" font-family="Virgil, Segoe UI Emoji" font-size="36px" fill="#1e1e1e" text-anchor="middle" style="white-space: pre;" direction="ltr" dominant-baseline="text-before-edge">Unitarias</text></g><g transform="translate(483.58333587646484 264.16666666666663) rotate(0 98.35832977294922 22.5)"><text x="98.35832977294922" y="0" font-family="Virgil, Segoe UI Emoji" font-size="36px" fill="#1e1e1e" text-anchor="middle" style="white-space: pre;" direction="ltr" dominant-baseline="text-before-edge">Integración</text></g><g transform="translate(511.78333282470703 150.91666666666663) rotate(0 72.40833282470703 17.5)"><text x="72.40833282470703" y="0" font-family="Virgil, Segoe UI Emoji" font-size="28px" fill="#1e1e1e" text-anchor="middle" style="white-space: pre;" direction="ltr" dominant-baseline="text-before-edge">Aceptación</text></g><g stroke-linecap="round"><g transform="translate(241.94166564941406 516.6666666666666) rotate(0 327.8112024493516 0.10420154436116036)"><path d="M-0.41 -0.2 C201.04 0.08, 400.91 0.02, 656.03 -0.05 M0.34 -0.19 C242.82 0.55, 485.29 0.41, 655.97 0.38" stroke="#1e1e1e" stroke-width="4" fill="none"></path></g></g><mask></mask><g stroke-linecap="round"><g transform="translate(240.69166564941406 517.9166666666666) rotate(0 169.31364319156856 -247.30817132517697)"><path d="M-0.36 0.35 C103.9 -156.3, 211.18 -311.2, 338.85 -494.96 M-0.1 -0.12 C99.53 -146.74, 200.08 -293.44, 338.98 -494.86" stroke="#1e1e1e" stroke-width="4" fill="none"></path></g></g><mask></mask><g stroke-linecap="round"><g transform="translate(898.1916656494141 520.4166666666666) rotate(0 -157.29156668353824 -252.53151133581997)"><path d="M-0.26 0.69 C-119.63 -196.51, -241.28 -390.56, -314.42 -505.75 M-0.16 -0.23 C-80.45 -130.53, -161.91 -261.96, -314.03 -505.12" stroke="#1e1e1e" stroke-width="4" fill="none"></path></g></g><mask></mask><g stroke-linecap="round"><g transform="translate(456.94166564941406 202.91666666666663) rotate(0 122.09339122827373 -0.3779867262552443)"><path d="M1.22 0.81 C55.98 -1.3, 114.86 -2.6, 243.56 -0.48 M-0.01 0.49 C78.86 -0.26, 158.3 -0.64, 244.2 -0.04" stroke="#1e1e1e" stroke-width="4" fill="none"></path></g></g><mask></mask><g stroke-linecap="round"><g transform="translate(345.69166564941406 366.66666666666663) rotate(0 227.74551671197415 -0.34884709162781746)"><path d="M0.72 -0.77 C105.21 0.33, 211.09 0.59, 455.63 0.58 M-0.35 0.16 C107.6 -1.96, 214.11 -1.42, 455.84 -0.26" stroke="#1e1e1e" stroke-width="4" fill="none"></path></g></g><mask></mask><g stroke-linecap="round"><g transform="translate(212.77499898274755 421.6666666666665) rotate(0 -0.5056993214005843 -173.35589233922073)"><path d="M0.08 0.88 C0.46 -132.42, 0.41 -267.36, -0.39 -347.59 M0.01 0.2 C-0.97 -120.07, -1.43 -240.27, -1.3 -346.39" stroke="#1e1e1e" stroke-width="4" fill="none"></path></g><g transform="translate(212.77499898274755 421.6666666666665) rotate(0 -0.5056993214005843 -173.35589233922073)"><path d="M-3.29 -346.6 L4.36 -332.18 L-7.96 -331.73 L-0.83 -344.71" stroke="none" stroke-width="0" fill="#1e1e1e" fill-rule="evenodd"></path><path d="M-1.21 -345.38 C1.56 -339.77, 4.68 -336.04, 6.5 -333.86 M-1.29 -346.16 C0.39 -341.8, 2.71 -337.32, 5.47 -332.48 M4.56 -332.2 C0.49 -333.34, -3.6 -333.07, -7.94 -332.53 M5.14 -332.88 C1.46 -333.09, -1.89 -333.13, -7.28 -332.72 M-6.39 -334.09 C-6 -338.05, -2.57 -343.05, -0.9 -346.99 M-7.12 -333.27 C-5.75 -336.7, -4.55 -340.79, -1.48 -346.21 M-1.3 -346.39 C-1.3 -346.39, -1.3 -346.39, -1.3 -346.39 M-1.3 -346.39 C-1.3 -346.39, -1.3 -346.39, -1.3 -346.39" stroke="#1e1e1e" stroke-width="4" fill="none"></path></g></g><mask></mask><g stroke-linecap="round"><g transform="translate(211.10833231608092 94.99999999999994) rotate(0 0.13642521626891835 172.8919243446901)"><path d="M-0.73 -0.47 C0.06 121.51, 0.89 243.74, 1.21 345.59 M0.05 0.22 C-1.17 128.36, -1.42 255.57, 0.26 346.25" stroke="#1e1e1e" stroke-width="4" fill="none"></path></g><g transform="translate(211.10833231608092 94.99999999999994) rotate(0 0.13642521626891835 172.8919243446901)"><path d="M-0.17 345.9 L-4.56 332.88 L8.25 332.94 L-0.93 345.69" stroke="none" stroke-width="0" fill="#1e1e1e" fill-rule="evenodd"></path><path d="M-0.58 345.72 C-1.57 341.55, -2.9 337.68, -4.85 331.49 M0.31 346.51 C-2.08 341.56, -4.77 335.54, -5.94 332.25 M-5.21 333.47 C-2.09 331.66, 0.24 331.74, 7.62 333.03 M-5.79 333.26 C-0.65 333.2, 4.1 332.51, 6.96 332.96 M6.07 333.72 C5.79 335.09, 4.49 339.47, 1.45 345.35 M6.82 332.93 C4.06 337.05, 2.13 340.14, 0.5 346.5 M0.26 346.25 C0.26 346.25, 0.26 346.25, 0.26 346.25 M0.26 346.25 C0.26 346.25, 0.26 346.25, 0.26 346.25" stroke="#1e1e1e" stroke-width="4" fill="none"></path></g></g><mask></mask><g transform="translate(201.52499898274755 10) rotate(0 11.25 22.5)"><text x="11.25" y="0" font-family="Virgil, Segoe UI Emoji" font-size="36px" fill="#1e1e1e" text-anchor="middle" style="white-space: pre;" direction="ltr" dominant-baseline="text-before-edge">+</text></g><g transform="translate(205.37499888738006 451.66666666666663) rotate(0 7.400000095367432 22.5)"><text x="7.400000095367432" y="0" font-family="Virgil, Segoe UI Emoji" font-size="36px" fill="#1e1e1e" text-anchor="middle" style="white-space: pre;" direction="ltr" dominant-baseline="text-before-edge">-</text></g><g transform="translate(10 241.66666666666674) rotate(0 88.44166564941406 22.5)"><text x="88.44166564941406" y="0" font-family="Virgil, Segoe UI Emoji" font-size="36px" fill="#1e1e1e" text-anchor="middle" style="white-space: pre;" direction="ltr" dominant-baseline="text-before-edge">Cobertura</text></g><g stroke-linecap="round"><g transform="translate(935.2584032041048 438.240297016725) rotate(179.72973889350584 -0.39865150000935046 -172.45444497024744)"><path d="M0 1.29 C0.8 -81.25, 0.57 -163.4, -1.64 -345.45 M-0.46 0.29 C1.36 -92.45, 1.39 -184.57, -1.13 -346.2" stroke="#1e1e1e" stroke-width="4" fill="none"></path></g><g transform="translate(935.2584032041048 438.240297016725) rotate(179.72973889350584 -0.39865150000935046 -172.45444497024744)"><path d="M-1.06 -344.54 L3.8 -332.54 L-6.78 -331.86 L-2.46 -344.27" stroke="none" stroke-width="0" fill="#1e1e1e" fill-rule="evenodd"></path><path d="M-1.12 -344.72 C-0.81 -343.26, 0.91 -341.29, 5.41 -331.29 M-1.65 -345.87 C0.67 -343.19, 2.93 -339.74, 6 -332.16 M5.94 -331.56 C1.51 -333.83, -0.46 -333.66, -6.49 -332.1 M5.41 -333.18 C0.68 -333.15, -3.74 -333, -7.49 -333.1 M-8.73 -332.83 C-6.78 -336.39, -5.12 -339.69, -1.9 -346.28 M-7.34 -332.5 C-5.43 -338.02, -2.08 -343.4, -0.59 -345.93 M-1.13 -346.2 C-1.13 -346.2, -1.13 -346.2, -1.13 -346.2 M-1.13 -346.2 C-1.13 -346.2, -1.13 -346.2, -1.13 -346.2" stroke="#1e1e1e" stroke-width="4" fill="none"></path></g></g><mask></mask><g stroke-linecap="round"><g transform="translate(936.8338420812972 74.08784073282027) rotate(179.72973889350584 -0.39724229997227667 172.9512932886351)"><path d="M-0.94 -0.14 C-0.77 134.5, 0.03 272.57, -0.45 345.71 M0.14 -0.47 C-0.97 122.65, -1.05 246.95, -0.39 346.37" stroke="#1e1e1e" stroke-width="4" fill="none"></path></g><g transform="translate(936.8338420812972 74.08784073282027) rotate(179.72973889350584 -0.39724229997227667 172.9512932886351)"><path d="M-1.97 346.52 L-6.27 333.47 L4.56 334.69 L-1.67 348.08" stroke="none" stroke-width="0" fill="#1e1e1e" fill-rule="evenodd"></path><path d="M-1.47 346.21 C-3.78 339.78, -5.37 337.21, -7.31 331.71 M-0.23 345.83 C-1.87 340.9, -4.23 337.28, -7.24 332.47 M-7.62 331.74 C-3.89 331.74, -0.69 333.1, 6.92 334.01 M-6.65 332.38 C-3.48 332.57, -1.47 332.31, 5.57 332.6 M4.83 332.29 C3.04 336.26, 1.42 340.39, 0.96 347.18 M5.43 332.65 C3.96 337.8, 1.63 343.41, -0.66 347.01 M-0.39 346.37 C-0.39 346.37, -0.39 346.37, -0.39 346.37 M-0.39 346.37 C-0.39 346.37, -0.39 346.37, -0.39 346.37" stroke="#1e1e1e" stroke-width="4" fill="none"></path></g></g><mask></mask><g transform="translate(924.2333207277813 459.9975432799897) rotate(179.72973889350584 11.25 22.5)"><text x="11.25" y="0" font-family="Virgil, Segoe UI Emoji" font-size="36px" fill="#1e1e1e" text-anchor="middle" style="white-space: pre;" direction="ltr" dominant-baseline="text-before-edge">+</text></g><g transform="translate(926.0000104756798 18.335790053343146) rotate(179.72973889350584 7.400000095367432 22.5)"><text x="7.400000095367432" y="0" font-family="Virgil, Segoe UI Emoji" font-size="36px" fill="#1e1e1e" text-anchor="middle" style="white-space: pre;" direction="ltr" dominant-baseline="text-before-edge">-</text></g><g transform="translate(960.1083297729492 242.33333333333326) rotate(0 79.33333587646484 22.5)"><text x="79.33333587646484" y="0" font-family="Virgil, Segoe UI Emoji" font-size="36px" fill="#1e1e1e" text-anchor="middle" style="white-space: pre;" direction="ltr" dominant-baseline="text-before-edge">Velocidad</text></g><g stroke-opacity="0.5" fill-opacity="0.5" transform="translate(454.1453665274166 549.1666666666664) rotate(0 124.35500386555987 15.833333333333314)"><text x="124.35500386555984" y="0" font-family="Virgil, Segoe UI Emoji" font-size="25.333333333333314px" fill="#1e1e1e" text-anchor="middle" style="white-space: pre;" direction="ltr" dominant-baseline="text-before-edge">Piramide de pruebas</text></g></svg>